999
dxflib 2.0.4.8
  0
SECTION
  2
HEADER
  9
$ACADVER
  1
AC1015
  9
$HANDSEED
  5
FFFF
  9
$DIMASZ
 40
0.1
  9
$DIMGAP
 40
0.025
  9
$DIMEXO
 40
0.025
  9
$INSUNITS
 70
1
  9
$DIMTXT
 40
0.1
  9
$DIMSTYLE
  2
Standard
  9
$PLIMMAX
 10
8.2677165354330722
 20
11.6929133858267722
  9
$PLIMMIN
 10
0.0
 20
0.0
  9
$DIMEXE
 40
0.05
  0
ENDSEC
  0
SECTION
  2
TABLES
  0
TABLE
  2
VPORT
  5
8
100
AcDbSymbolTable
 70
1
  0
VPORT
  5
30
100
AcDbSymbolTableRecord
100
AcDbViewportTableRecord
  2
*Active
 70
0
 10
0.0
 20
0.0
 11
1.0
 21
1.0
 12
286.3055555555554861
 22
148.5
 13
0.0
 23
0.0
 14
10.0
 24
10.0
 15
10.0
 25
10.0
 16
0.0
 26
0.0
 36
1.0
 17
0.0
 27
0.0
 37
0.0
 40
297.0
 41
1.92798353909465
 42
50.0
 43
0.0
 44
0.0
 50
0.0
 51
0.0
 71
0
 72
100
 73
1
 74
3
 75
1
 76
1
 77
0
 78
0
281
0
 65
1
110
0.0
120
0.0
130
0.0
111
1.0
121
0.0
131
0.0
112
0.0
122
1.0
132
0.0
 79
0
146
0.0
  0
ENDTAB
  0
TABLE
  2
LTYPE
  5
5
100
AcDbSymbolTable
 70
21
  0
LTYPE
  5
14
100
AcDbSymbolTableRecord
100
AcDbLinetypeTableRecord
  2
ByBlock
 70
0
  3

 72
65
 73
0
 40
0.0
  0
LTYPE
  5
15
100
AcDbSymbolTableRecord
100
AcDbLinetypeTableRecord
  2
ByLayer
 70
0
  3

 72
65
 73
0
 40
0.0
  0
LTYPE
  5
16
100
AcDbSymbolTableRecord
100
AcDbLinetypeTableRecord
  2
CONTINUOUS
 70
0
  3
Solid line
 72
65
 73
0
 40
0.0
  0
LTYPE
  5
31
100
AcDbSymbolTableRecord
100
AcDbLinetypeTableRecord
  2
DOT
 70
0
  3
Dot . . . . . . . . . . . . . . . . . . . . . .
 72
65
 73
2
 40
6.3499999999999996
 49
0.0
 74
0
 49
-6.3499999999999996
 74
0
  0
LTYPE
  5
32
100
AcDbSymbolTableRecord
100
AcDbLinetypeTableRecord
  2
DOT2
 70
0
  3
Dot (.5x) .....................................
 72
65
 73
2
 40
3.1749999999999998
 49
0.0
 74
0
 49
-3.1749999999999998
 74
0
  0
LTYPE
  5
33
100
AcDbSymbolTableRecord
100
AcDbLinetypeTableRecord
  2
DOTX2
 70
0
  3
Dot (2x) .  .  .  .  .  .  .  .  .  .  .  .  .
 72
65
 73
2
 40
12.6999999999999993
 49
0.0
 74
0
 49
-12.6999999999999993
 74
0
  0
LTYPE
  5
34
100
AcDbSymbolTableRecord
100
AcDbLinetypeTableRecord
  2
DASHED
 70
0
  3
Dashed __ __ __ __ __ __ __ __ __ __ __ __ __ _
 72
65
 73
2
 40
19.0500000000000007
 49
12.6999999999999993
 74
0
 49
-6.3499999999999996
 74
0
  0
LTYPE
  5
35
100
AcDbSymbolTableRecord
100
AcDbLinetypeTableRecord
  2
DASHED2
 70
0
  3
Dashed (.5x) _ _ _ _ _ _ _ _ _ _ _ _ _ _ _ _ _
 72
65
 73
2
 40
9.5250000000000004
 49
6.3499999999999996
 74
0
 49
-3.1749999999999998
 74
0
  0
LTYPE
  5
36
100
AcDbSymbolTableRecord
100
AcDbLinetypeTableRecord
  2
DASHEDX2
 70
0
  3
Dashed (2x) ____  ____  ____  ____  ____  ___
 72
65
 73
2
 40
38.1000000000000014
 49
25.3999999999999986
 74
0
 49
-12.6999999999999993
 74
0
  0
LTYPE
  5
37
100
AcDbSymbolTableRecord
100
AcDbLinetypeTableRecord
  2
DASHDOT
 70
0
  3
Dash dot __ . __ . __ . __ . __ . __ . __ . __
 72
65
 73
4
 40
25.3999999999999986
 49
12.6999999999999993
 74
0
 49
-6.3499999999999996
 74
0
 49
0.0
 74
0
 49
-6.3499999999999996
 74
0
  0
LTYPE
  5
38
100
AcDbSymbolTableRecord
100
AcDbLinetypeTableRecord
  2
DASHDOT2
 70
0
  3
Dash dot (.5x) _._._._._._._._._._._._._._._.
 72
65
 73
4
 40
12.6999999999999993
 49
6.3499999999999996
 74
0
 49
-3.1749999999999998
 74
0
 49
0.0
 74
0
 49
-3.1749999999999998
 74
0
  0
LTYPE
  5
39
100
AcDbSymbolTableRecord
100
AcDbLinetypeTableRecord
  2
DASHDOTX2
 70
0
  3
Dash dot (2x) ____  .  ____  .  ____  .  ___
 72
65
 73
4
 40
50.7999999999999972
 49
25.3999999999999986
 74
0
 49
-12.6999999999999993
 74
0
 49
0.0
 74
0
 49
-12.6999999999999993
 74
0
  0
LTYPE
  5
3A
100
AcDbSymbolTableRecord
100
AcDbLinetypeTableRecord
  2
DIVIDE
 70
0
  3
Divide ____ . . ____ . . ____ . . ____ . . ____
 72
65
 73
6
 40
31.75
 49
12.6999999999999993
 74
0
 49
-6.3499999999999996
 74
0
 49
0.0
 74
0
 49
-6.3499999999999996
 74
0
 49
0.0
 74
0
 49
-6.3499999999999996
 74
0
  0
LTYPE
  5
3B
100
AcDbSymbolTableRecord
100
AcDbLinetypeTableRecord
  2
DIVIDE2
 70
0
  3
Divide (.5x) __..__..__..__..__..__..__..__.._
 72
65
 73
6
 40
15.875
 49
6.3499999999999996
 74
0
 49
-3.1749999999999998
 74
0
 49
0.0
 74
0
 49
-3.1749999999999998
 74
0
 49
0.0
 74
0
 49
-3.1749999999999998
 74
0
  0
LTYPE
  5
3C
100
AcDbSymbolTableRecord
100
AcDbLinetypeTableRecord
  2
DIVIDEX2
 70
0
  3
Divide (2x) ________  .  .  ________  .  .  _
 72
65
 73
6
 40
63.5
 49
25.3999999999999986
 74
0
 49
-12.6999999999999993
 74
0
 49
0.0
 74
0
 49
-12.6999999999999993
 74
0
 49
0.0
 74
0
 49
-12.6999999999999993
 74
0
  0
LTYPE
  5
3D
100
AcDbSymbolTableRecord
100
AcDbLinetypeTableRecord
  2
CENTER
 70
0
  3
Center ____ _ ____ _ ____ _ ____ _ ____ _ ____
 72
65
 73
4
 40
50.7999999999999972
 49
31.75
 74
0
 49
-6.3499999999999996
 74
0
 49
6.3499999999999996
 74
0
 49
-6.3499999999999996
 74
0
  0
LTYPE
  5
3E
100
AcDbSymbolTableRecord
100
AcDbLinetypeTableRecord
  2
CENTER2
 70
0
  3
Center (.5x) ___ _ ___ _ ___ _ ___ _ ___ _ ___
 72
65
 73
4
 40
28.5749999999999993
 49
19.0500000000000007
 74
0
 49
-3.1749999999999998
 74
0
 49
3.1749999999999998
 74
0
 49
-3.1749999999999998
 74
0
  0
LTYPE
  5
3F
100
AcDbSymbolTableRecord
100
AcDbLinetypeTableRecord
  2
CENTERX2
 70
0
  3
Center (2x) ________  __  ________  __  _____
 72
65
 73
4
 40
101.5999999999999943
 49
63.5
 74
0
 49
-12.6999999999999993
 74
0
 49
12.6999999999999993
 74
0
 49
-12.6999999999999993
 74
0
  0
LTYPE
  5
40
100
AcDbSymbolTableRecord
100
AcDbLinetypeTableRecord
  2
BORDER
 70
0
  3
Border __ __ . __ __ . __ __ . __ __ . __ __ .
 72
65
 73
6
 40
44.4500000000000028
 49
12.6999999999999993
 74
0
 49
-6.3499999999999996
 74
0
 49
12.6999999999999993
 74
0
 49
-6.3499999999999996
 74
0
 49
0.0
 74
0
 49
-6.3499999999999996
 74
0
  0
LTYPE
  5
41
100
AcDbSymbolTableRecord
100
AcDbLinetypeTableRecord
  2
BORDER2
 70
0
  3
Border (.5x) __.__.__.__.__.__.__.__.__.__.__.
 72
65
 73
6
 40
22.2250000000000014
 49
6.3499999999999996
 74
0
 49
-3.1749999999999998
 74
0
 49
6.3499999999999996
 74
0
 49
-3.1749999999999998
 74
0
 49
0.0
 74
0
 49
-3.1749999999999998
 74
0
  0
LTYPE
  5
42
100
AcDbSymbolTableRecord
100
AcDbLinetypeTableRecord
  2
BORDERX2
 70
0
  3
Border (2x) ____  ____  .  ____  ____  .  ___
 72
65
 73
6
 40
88.9000000000000057
 49
25.3999999999999986
 74
0
 49
-12.6999999999999993
 74
0
 49
25.3999999999999986
 74
0
 49
-12.6999999999999993
 74
0
 49
0.0
 74
0
 49
-12.6999999999999993
 74
0
  0
ENDTAB
  0
TABLE
  2
LAYER
  5
2
100
AcDbSymbolTable
 70
6
  0
LAYER
  5
10
100
AcDbSymbolTableRecord
100
AcDbLayerTableRecord
  2
0
 70
0
 62
7
  6
CONTINUOUS
370
0
390
F
  0
LAYER
  5
43
100
AcDbSymbolTableRecord
100
AcDbLayerTableRecord
  2
notes
 70
0
 62
3
  6
CONTINUOUS
370
0
390
F
  0
LAYER
  5
44
100
AcDbSymbolTableRecord
100
AcDbLayerTableRecord
  2
holes
 70
0
 62
7
  6
CONTINUOUS
370
0
390
F
  0
LAYER
  5
45
100
AcDbSymbolTableRecord
100
AcDbLayerTableRecord
  2
outlines
 70
0
 62
7
  6
CONTINUOUS
370
0
390
F
  0
LAYER
  5
46
100
AcDbSymbolTableRecord
100
AcDbLayerTableRecord
  2
screws
 70
0
 62
3
  6
CONTINUOUS
370
0
390
F
  0
LAYER
  5
47
100
AcDbSymbolTableRecord
100
AcDbLayerTableRecord
  2
.125
 70
0
 62
4
  6
CONTINUOUS
370
0
390
F
  0
ENDTAB
  0
TABLE
  2
STYLE
  5
3
100
AcDbSymbolTable
 70
1
  0
STYLE
  5
11
100
AcDbSymbolTableRecord
100
AcDbTextStyleTableRecord
  2
Standard
 70
0
 40
0.0
 41
0.75
 50
0.0
 71
0
 42
2.5
  3
txt
  4

  0
ENDTAB
  0
TABLE
  2
VIEW
  5
6
100
AcDbSymbolTable
 70
0
  0
ENDTAB
  0
TABLE
  2
UCS
  5
7
100
AcDbSymbolTable
 70
0
  0
ENDTAB
  0
TABLE
  2
APPID
  5
9
100
AcDbSymbolTable
 70
1
  0
APPID
  5
12
100
AcDbSymbolTableRecord
100
AcDbRegAppTableRecord
  2
ACAD
 70
0
  0
ENDTAB
  0
TABLE
  2
DIMSTYLE
  5
A
100
AcDbSymbolTable
 70
1
100
AcDbDimStyleTable
 71
0
  0
DIMSTYLE
105
27
100
AcDbSymbolTableRecord
100
AcDbDimStyleTableRecord
  2
Standard
 41
0.1
 42
0.025
 43
3.75
 44
0.05
 70
0
 73
0
 74
0
 77
1
 78
8
140
0.1
141
2.5
143
0.03937007874016
147
0.025
171
3
172
1
271
2
272
2
274
3
278
44
283
0
284
8
340
11
  0
ENDTAB
  0
TABLE
  2
BLOCK_RECORD
  5
1
100
AcDbSymbolTable
 70
1
  0
BLOCK_RECORD
  5
1F
100
AcDbSymbolTableRecord
100
AcDbBlockTableRecord
  2
*Model_Space
340
22
  0
BLOCK_RECORD
  5
1B
100
AcDbSymbolTableRecord
100
AcDbBlockTableRecord
  2
*Paper_Space
340
1E
  0
BLOCK_RECORD
  5
23
100
AcDbSymbolTableRecord
100
AcDbBlockTableRecord
  2
*Paper_Space0
340
26
  0
ENDTAB
  0
ENDSEC
  0
SECTION
  2
BLOCKS
  0
BLOCK
  5
20
100
AcDbEntity
  8
0
100
AcDbBlockBegin
  2
*Model_Space
 70
0
 10
0.0
 20
0.0
 30
0.0
  3
*Model_Space
  1

  0
ENDBLK
  5
21
100
AcDbEntity
  8
0
100
AcDbBlockEnd
  0
BLOCK
  5
1C
100
AcDbEntity
 67
1
  8
0
100
AcDbBlockBegin
  2
*Paper_Space
 70
0
 10
0.0
 20
0.0
 30
0.0
  3
*Paper_Space
  1

  0
ENDBLK
  5
1D
100
AcDbEntity
 67
1
  8
0
100
AcDbBlockEnd
  0
BLOCK
  5
24
100
AcDbEntity
  8
0
100
AcDbBlockBegin
  2
*Paper_Space0
 70
0
 10
0.0
 20
0.0
 30
0.0
  3
*Paper_Space0
  1

  0
ENDBLK
  5
25
100
AcDbEntity
  8
0
100
AcDbBlockEnd
  0
ENDSEC
  0
SECTION
  2
ENTITIES
  0
LINE
  5
48
100
AcDbEntity
100
AcDbLine
  8
notes
 62
256
370
-1
  6
ByLayer
 10
14.0
 20
28.0
 30
0.0
 11
14.0
 21
4.0
 31
0.0
  0
LINE
  5
49
100
AcDbEntity
100
AcDbLine
  8
notes
 62
256
370
-1
  6
ByLayer
 10
14.0
 20
4.0
 30
0.0
 11
-34.0
 21
4.0
 31
0.0
  0
LINE
  5
4A
100
AcDbEntity
100
AcDbLine
  8
notes
 62
256
370
-1
  6
ByLayer
 10
-34.0
 20
4.0
 30
0.0
 11
-34.0
 21
28.0
 31
0.0
  0
CIRCLE
  5
4B
100
AcDbEntity
100
AcDbCircle
  8
notes
 62
256
370
-1
  6
ByLayer
 10
-33.5
 20
27.5
 30
0.0
 40
0.063
  0
CIRCLE
  5
4C
100
AcDbEntity
100
AcDbCircle
  8
screws
 62
256
370
-1
  6
ByLayer
 10
-33.5
 20
27.5
 30
0.0
 40
0.063
  0
CIRCLE
  5
4D
100
AcDbEntity
100
AcDbCircle
  8
screws
 62
256
370
-1
  6
ByLayer
 10
13.5
 20
27.5
 30
0.0
 40
0.063
  0
CIRCLE
  5
4E
100
AcDbEntity
100
AcDbCircle
  8
screws
 62
256
370
-1
  6
ByLayer
 10
-33.5000000000000071
 20
4.5
 30
0.0
 40
0.063
  0
CIRCLE
  5
4F
100
AcDbEntity
100
AcDbCircle
  8
screws
 62
256
370
-1
  6
ByLayer
 10
13.5000000000000018
 20
4.5
 30
0.0
 40
0.063
  0
CIRCLE
  5
50
100
AcDbEntity
100
AcDbCircle
  8
screws
 62
256
370
-1
  6
ByLayer
 10
-18.5000000000000036
 20
27.5
 30
0.0
 40
0.063
  0
CIRCLE
  5
51
100
AcDbEntity
100
AcDbCircle
  8
screws
 62
256
370
-1
  6
ByLayer
 10
-2.5999999999999996
 20
27.5
 30
0.0
 40
0.063
  0
CIRCLE
  5
52
100
AcDbEntity
100
AcDbCircle
  8
screws
 62
256
370
-1
  6
ByLayer
 10
-2.6000000000000085
 20
4.5
 30
0.0
 40
0.063
  0
CIRCLE
  5
53
100
AcDbEntity
100
AcDbCircle
  8
screws
 62
256
370
-1
  6
ByLayer
 10
-33.5
 20
16.3000000000000007
 30
0.0
 40
0.063
  0
CIRCLE
  5
54
100
AcDbEntity
100
AcDbCircle
  8
screws
 62
256
370
-1
  6
ByLayer
 10
13.5000000000000018
 20
15.0000000000000018
 30
0.0
 40
0.063
  0
CIRCLE
  5
55
100
AcDbEntity
100
AcDbCircle
  8
screws
 62
256
370
-1
  6
ByLayer
 10
-18.5000000000000107
 20
4.5
 30
0.0
 40
0.063
  0
LINE
  5
56
100
AcDbEntity
100
AcDbLine
  8
notes
 62
256
370
-1
  6
ByLayer
 10
-33.0000000000000071
 20
27.0
 30
0.0
 11
13.0
 21
27.0
 31
0.0
  0
LINE
  5
57
100
AcDbEntity
100
AcDbLine
  8
notes
 62
256
370
-1
  6
ByLayer
 10
13.0
 20
27.0
 30
0.0
 11
13.0
 21
5.0
 31
0.0
  0
LINE
  5
58
100
AcDbEntity
100
AcDbLine
  8
notes
 62
256
370
-1
  6
ByLayer
 10
13.0
 20
5.0
 30
0.0
 11
-33.0000000000000071
 21
5.0
 31
0.0
  0
LINE
  5
59
100
AcDbEntity
100
AcDbLine
  8
notes
 62
256
370
-1
  6
ByLayer
 10
-33.0000000000000071
 20
5.0
 30
0.0
 11
-33.0000000000000071
 21
27.0
 31
0.0
  0
MTEXT
  5
5A
100
AcDbEntity
100
AcDbMText
  8
notes
 62
256
370
-1
  6
ByLayer
 10
-28.9999999999999964
 20
26.6500000000000021
 30
0.0
 40
0.5
 41
100.0
 71
1
 72
2
  1
Front
  7
normallatin1
 50
0.0
 73
0
 44
1.0
  0
LINE
  5
5B
100
AcDbEntity
100
AcDbLine
  8
notes
 62
256
370
-1
  6
ByLayer
 10
-34.0
 20
28.0
 30
0.0
 11
14.0
 21
28.0
 31
0.0
  0
CIRCLE
  5
5C
100
AcDbEntity
100
AcDbCircle
  8
holes
 62
256
370
-1
  6
ByLayer
 10
3.7670000000000003
 20
6.2329999999999988
 30
0.0
 40
0.197000000000001
  0
MTEXT
  5
5D
100
AcDbEntity
100
AcDbMText
  8
notes
 62
256
370
-1
  6
ByLayer
 10
-24.0
 20
17.0
 30
0.0
 40
0.25
 41
100.0
 71
1
 72
2
  1
Check\~Z\~stepper\~edge\~to\~shaft\~center\~spacing
  7
normallatin1
 50
0.0
 73
0
 44
1.0
  0
LINE
  5
5E
100
AcDbEntity
100
AcDbLine
  8
outlines
 62
256
370
-1
  6
ByLayer
 10
-10.0
 20
16.8000000000000007
 30
0.0
 11
-10.0
 21
26.8000000000000007
 31
0.0
  0
LINE
  5
5F
100
AcDbEntity
100
AcDbLine
  8
outlines
 62
256
370
-1
  6
ByLayer
 10
-10.0
 20
26.8000000000000007
 30
0.0
 11
0.0000000000000009
 21
26.8000000000000007
 31
0.0
  0
LINE
  5
60
100
AcDbEntity
100
AcDbLine
  8
outlines
 62
256
370
-1
  6
ByLayer
 10
0.0000000000000009
 20
26.8000000000000007
 30
0.0
 11
-0.0000000000000009
 21
16.8000000000000007
 31
0.0
  0
LINE
  5
61
100
AcDbEntity
100
AcDbLine
  8
outlines
 62
256
370
-1
  6
ByLayer
 10
-0.0000000000000009
 20
16.8000000000000007
 30
0.0
 11
-10.0
 21
16.8000000000000007
 31
0.0
  0
LINE
  5
62
100
AcDbEntity
100
AcDbLine
  8
notes
 62
256
370
-1
  6
ByLayer
 10
-3.1875000000000036
 20
16.8000000000000007
 30
0.0
 11
-3.1875000000000009
 21
26.8000000000000007
 31
0.0
  0
LINE
  5
63
100
AcDbEntity
100
AcDbLine
  8
notes
 62
256
370
-1
  6
ByLayer
 10
-2.8124999999999973
 20
26.8000000000000007
 30
0.0
 11
-2.8125
 21
16.8000000000000007
 31
0.0
  0
LINE
  5
64
100
AcDbEntity
100
AcDbLine
  8
notes
 62
256
370
-1
  6
ByLayer
 10
-7.1875000000000018
 20
16.8000000000000007
 30
0.0
 11
-7.1875
 21
26.8000000000000007
 31
0.0
  0
LINE
  5
65
100
AcDbEntity
100
AcDbLine
  8
notes
 62
256
370
-1
  6
ByLayer
 10
-6.8124999999999982
 20
26.8000000000000007
 30
0.0
 11
-6.8124999999999982
 21
16.8000000000000007
 31
0.0
  0
LINE
  5
66
100
AcDbEntity
100
AcDbLine
  8
notes
 62
256
370
-1
  6
ByLayer
 10
-0.0000000000000018
 20
17.2999999999999972
 30
0.0
 11
-10.0
 21
17.3000000000000007
 31
0.0
  0
LINE
  5
67
100
AcDbEntity
100
AcDbLine
  8
notes
 62
256
370
-1
  6
ByLayer
 10
0.0
 20
26.3000000000000007
 30
0.0
 11
-10.0
 21
26.3000000000000043
 31
0.0
  0
LINE
  5
68
100
AcDbEntity
100
AcDbLine
  8
notes
 62
256
370
-1
  6
ByLayer
 10
-9.5
 20
17.3000000000000007
 30
0.0
 11
-9.5
 21
26.3000000000000007
 31
0.0
  0
LINE
  5
69
100
AcDbEntity
100
AcDbLine
  8
notes
 62
256
370
-1
  6
ByLayer
 10
-0.5000000000000009
 20
17.3000000000000007
 30
0.0
 11
-0.4999999999999991
 21
26.3000000000000007
 31
0.0
  0
LINE
  5
6A
100
AcDbEntity
100
AcDbLine
  8
notes
 62
256
370
-1
  6
ByLayer
 10
-0.6250000000000009
 20
17.4250000000000007
 30
0.0
 11
-9.375
 21
17.4250000000000007
 31
0.0
  0
CIRCLE
  5
6B
100
AcDbEntity
100
AcDbCircle
  8
holes
 62
256
370
-1
  6
ByLayer
 10
-9.0625
 20
17.0500000000000007
 30
0.0
 40
0.063
  0
CIRCLE
  5
6C
100
AcDbEntity
100
AcDbCircle
  8
holes
 62
256
370
-1
  6
ByLayer
 10
-0.9375000000000027
 20
17.0499999999999972
 30
0.0
 40
0.063
  0
CIRCLE
  5
6D
100
AcDbEntity
100
AcDbCircle
  8
holes
 62
256
370
-1
  6
ByLayer
 10
-0.25
 20
18.2375000000000007
 30
0.0
 40
0.063
  0
CIRCLE
  5
6E
100
AcDbEntity
100
AcDbCircle
  8
holes
 62
256
370
-1
  6
ByLayer
 10
-9.75
 20
18.2375000000000007
 30
0.0
 40
0.063
  0
CIRCLE
  5
6F
100
AcDbEntity
100
AcDbCircle
  8
holes
 62
256
370
-1
  6
ByLayer
 10
-0.2499999999999991
 20
25.3624999999999901
 30
0.0
 40
0.063
  0
CIRCLE
  5
70
100
AcDbEntity
100
AcDbCircle
  8
holes
 62
256
370
-1
  6
ByLayer
 10
-9.7499999999999929
 20
25.3625000000000007
 30
0.0
 40
0.063
  0
CIRCLE
  5
71
100
AcDbEntity
100
AcDbCircle
  8
holes
 62
256
370
-1
  6
ByLayer
 10
-9.0625
 20
26.5500000000000007
 30
0.0
 40
0.063
  0
CIRCLE
  5
72
100
AcDbEntity
100
AcDbCircle
  8
holes
 62
256
370
-1
  6
ByLayer
 10
-0.9374999999999982
 20
26.5499999999999972
 30
0.0
 40
0.063
  0
MTEXT
  5
73
100
AcDbEntity
100
AcDbMText
  8
notes
 62
256
370
-1
  6
ByLayer
 10
-15.9999944444444449
 20
26.0
 30
0.0
 40
0.5
 41
100.0
 71
1
 72
2
  1
Back
  7
normallatin1
 50
0.0
 73
0
 44
1.0
  0
LINE
  5
74
100
AcDbEntity
100
AcDbLine
  8
notes
 62
256
370
-1
  6
ByLayer
 10
-32.1010000000000062
 20
7.9510000000000023
 30
0.0
 11
-32.6010000000000062
 21
7.9510000000000023
 31
0.0
  0
LINE
  5
75
100
AcDbEntity
100
AcDbLine
  8
notes
 62
256
370
-1
  6
ByLayer
 10
-21.9060000000000059
 20
6.5360000000000031
 30
0.0
 11
-21.0310000000000059
 21
6.5360000000000023
 31
0.0
  0
LINE
  5
76
100
AcDbEntity
100
AcDbLine
  8
notes
 62
256
370
-1
  6
ByLayer
 10
-21.0310000000000059
 20
6.5360000000000023
 30
0.0
 11
-21.0310000000000059
 21
8.1160000000000014
 31
0.0
  0
LINE
  5
77
100
AcDbEntity
100
AcDbLine
  8
notes
 62
256
370
-1
  6
ByLayer
 10
-21.0310000000000059
 20
8.1160000000000014
 30
0.0
 11
-22.6010000000000062
 21
8.1160000000000014
 31
0.0
  0
LINE
  5
78
100
AcDbEntity
100
AcDbLine
  8
notes
 62
256
370
-1
  6
ByLayer
 10
-22.6010000000000062
 20
8.1160000000000014
 30
0.0
 11
-22.6010000000000062
 21
6.5360000000000031
 31
0.0
  0
LINE
  5
79
100
AcDbEntity
100
AcDbLine
  8
notes
 62
256
370
-1
  6
ByLayer
 10
-22.6010000000000062
 20
6.5360000000000031
 30
0.0
 11
-21.0310000000000059
 21
6.5360000000000023
 31
0.0
  0
LINE
  5
7A
100
AcDbEntity
100
AcDbLine
  8
notes
 62
256
370
-1
  6
ByLayer
 10
-22.6010000000000062
 20
6.8930000000000025
 30
0.0
 11
-22.6810000000000045
 21
6.8930000000000025
 31
0.0
  0
LINE
  5
7B
100
AcDbEntity
100
AcDbLine
  8
notes
 62
256
370
-1
  6
ByLayer
 10
-22.6810000000000045
 20
6.8930000000000025
 30
0.0
 11
-22.6810000000000045
 21
7.7590000000000021
 31
0.0
  0
LINE
  5
7C
100
AcDbEntity
100
AcDbLine
  8
notes
 62
256
370
-1
  6
ByLayer
 10
-22.6810000000000045
 20
7.7590000000000021
 30
0.0
 11
-22.6010000000000062
 21
7.7590000000000021
 31
0.0
  0
LINE
  5
7D
100
AcDbEntity
100
AcDbLine
  8
notes
 62
256
370
-1
  6
ByLayer
 10
-32.6010000000000062
 20
5.9510000000000023
 30
0.0
 11
-32.6010000000000062
 21
6.4510000000000023
 31
0.0
  0
LINE
  5
7E
100
AcDbEntity
100
AcDbLine
  8
notes
 62
256
370
-1
  6
ByLayer
 10
-22.6010000000000062
 20
6.4510000000000023
 30
0.0
 11
-22.6010000000000062
 21
5.9510000000000023
 31
0.0
  0
LINE
  5
7F
100
AcDbEntity
100
AcDbLine
  8
notes
 62
256
370
-1
  6
ByLayer
 10
-32.6010000000000062
 20
5.9510000000000023
 30
0.0
 11
-22.6010000000000062
 21
5.9510000000000023
 31
0.0
  0
LINE
  5
80
100
AcDbEntity
100
AcDbLine
  8
notes
 62
256
370
-1
  6
ByLayer
 10
-32.6010000000000062
 20
6.4510000000000023
 30
0.0
 11
-22.6010000000000062
 21
6.4510000000000023
 31
0.0
  0
LINE
  5
81
100
AcDbEntity
100
AcDbLine
  8
outlines
 62
256
370
-1
  6
ByLayer
 10
-32.1010000000000062
 20
6.4510000000000023
 30
0.0
 11
-23.1010000000000062
 21
6.4510000000000023
 31
0.0
  0
LINE
  5
82
100
AcDbEntity
100
AcDbLine
  8
notes
 62
256
370
-1
  6
ByLayer
 10
-22.6010000000000062
 20
6.4510000000000023
 30
0.0
 11
-23.1010000000000062
 21
6.4510000000000023
 31
0.0
  0
LINE
  5
83
100
AcDbEntity
100
AcDbLine
  8
notes
 62
256
370
-1
  6
ByLayer
 10
-32.6010000000000062
 20
6.4510000000000023
 30
0.0
 11
-32.1010000000000062
 21
6.4510000000000023
 31
0.0
  0
LINE
  5
84
100
AcDbEntity
100
AcDbLine
  8
outlines
 62
256
370
-1
  6
ByLayer
 10
-21.0
 20
19.6000000000000014
 30
0.0
 11
-11.0
 21
19.6000000000000014
 31
0.0
  0
LINE
  5
85
100
AcDbEntity
100
AcDbLine
  8
notes
 62
256
370
-1
  6
ByLayer
 10
-32.6010000000000062
 20
7.9510000000000023
 30
0.0
 11
-32.6010000000000062
 21
6.4510000000000023
 31
0.0
  0
LINE
  5
86
100
AcDbEntity
100
AcDbLine
  8
notes
 62
256
370
-1
  6
ByLayer
 10
-16.7900000000000027
 20
19.6850000000000023
 30
0.0
 11
-15.2100000000000009
 21
19.6850000000000023
 31
0.0
  0
LINE
  5
87
100
AcDbEntity
100
AcDbLine
  8
notes
 62
256
370
-1
  6
ByLayer
 10
-15.2100000000000009
 20
19.6850000000000023
 30
0.0
 11
-15.2100000000000009
 21
21.2650000000000006
 31
0.0
  0
LINE
  5
88
100
AcDbEntity
100
AcDbLine
  8
notes
 62
256
370
-1
  6
ByLayer
 10
-15.2100000000000009
 20
21.2650000000000006
 30
0.0
 11
-16.7900000000000027
 21
21.2650000000000006
 31
0.0
  0
LINE
  5
89
100
AcDbEntity
100
AcDbLine
  8
notes
 62
256
370
-1
  6
ByLayer
 10
-16.7900000000000027
 20
21.2650000000000006
 30
0.0
 11
-16.7900000000000027
 21
19.6850000000000023
 31
0.0
  0
CIRCLE
  5
8A
100
AcDbEntity
100
AcDbCircle
  8
holes
 62
256
370
-1
  6
ByLayer
 10
-16.0
 20
20.4750000000000014
 30
0.0
 40
0.433
  0
CIRCLE
  5
8B
100
AcDbEntity
100
AcDbCircle
  8
holes
 62
256
370
-1
  6
ByLayer
 10
-15.3900000000000006
 20
21.0850000000000009
 30
0.0
 40
0.063
  0
CIRCLE
  5
8C
100
AcDbEntity
100
AcDbCircle
  8
holes
 62
256
370
-1
  6
ByLayer
 10
-15.3900000000000006
 20
19.865000000000002
 30
0.0
 40
0.063
  0
CIRCLE
  5
8D
100
AcDbEntity
100
AcDbCircle
  8
holes
 62
256
370
-1
  6
ByLayer
 10
-16.6099999999999994
 20
19.865000000000002
 30
0.0
 40
0.063
  0
CIRCLE
  5
8E
100
AcDbEntity
100
AcDbCircle
  8
holes
 62
256
370
-1
  6
ByLayer
 10
-16.6099999999999994
 20
21.0850000000000009
 30
0.0
 40
0.063
  0
LINE
  5
8F
100
AcDbEntity
100
AcDbLine
  8
notes
 62
256
370
-1
  6
ByLayer
 10
-9.375
 20
21.6750000000000007
 30
0.0
 11
-0.625
 21
21.6750000000000007
 31
0.0
  0
LINE
  5
90
100
AcDbEntity
100
AcDbLine
  8
notes
 62
256
370
-1
  6
ByLayer
 10
-0.625
 20
21.6750000000000007
 30
0.0
 11
-0.6250000000000009
 21
17.4250000000000007
 31
0.0
  0
LINE
  5
91
100
AcDbEntity
100
AcDbLine
  8
notes
 62
256
370
-1
  6
ByLayer
 10
-29.7260000000000062
 20
8.0760000000000023
 30
0.0
 11
-25.4760000000000062
 21
8.0760000000000023
 31
0.0
  0
LINE
  5
92
100
AcDbEntity
100
AcDbLine
  8
notes
 62
256
370
-1
  6
ByLayer
 10
-25.4760000000000062
 20
8.0760000000000023
 30
0.0
 11
-25.4760000000000062
 21
7.5760000000000023
 31
0.0
  0
LINE
  5
93
100
AcDbEntity
100
AcDbLine
  8
notes
 62
256
370
-1
  6
ByLayer
 10
-25.4760000000000062
 20
7.5760000000000023
 30
0.0
 11
-29.7260000000000062
 21
7.5760000000000023
 31
0.0
  0
LINE
  5
94
100
AcDbEntity
100
AcDbLine
  8
notes
 62
256
370
-1
  6
ByLayer
 10
-29.7260000000000062
 20
7.5760000000000023
 30
0.0
 11
-29.7260000000000062
 21
8.0760000000000023
 31
0.0
  0
LINE
  5
95
100
AcDbEntity
100
AcDbLine
  8
notes
 62
256
370
-1
  6
ByLayer
 10
-28.8510000000000062
 20
7.5760000000000023
 30
0.0
 11
-28.8510000000000062
 21
7.0760000000000023
 31
0.0
  0
LINE
  5
96
100
AcDbEntity
100
AcDbLine
  8
notes
 62
256
370
-1
  6
ByLayer
 10
-29.7260000000000062
 20
7.0760000000000023
 30
0.0
 11
-29.7260000000000062
 21
7.5760000000000023
 31
0.0
  0
LINE
  5
97
100
AcDbEntity
100
AcDbLine
  8
notes
 62
256
370
-1
  6
ByLayer
 10
-28.8510000000000062
 20
7.0760000000000023
 30
0.0
 11
-29.7260000000000062
 21
7.0760000000000023
 31
0.0
  0
CIRCLE
  5
98
100
AcDbEntity
100
AcDbCircle
  8
holes
 62
256
370
-1
  6
ByLayer
 10
-2.25
 20
14.96875
 30
0.0
 40
0.11
  0
CIRCLE
  5
99
100
AcDbEntity
100
AcDbCircle
  8
holes
 62
256
370
-1
  6
ByLayer
 10
-2.25
 20
12.78125
 30
0.0
 40
0.11
  0
CIRCLE
  5
9A
100
AcDbEntity
100
AcDbCircle
  8
holes
 62
256
370
-1
  6
ByLayer
 10
-9.0
 20
14.96875
 30
0.0
 40
0.11
  0
CIRCLE
  5
9B
100
AcDbEntity
100
AcDbCircle
  8
holes
 62
256
370
-1
  6
ByLayer
 10
-9.0
 20
12.78125
 30
0.0
 40
0.11
  0
LINE
  5
9C
100
AcDbEntity
100
AcDbLine
  8
outlines
 62
256
370
-1
  6
ByLayer
 10
-1.25
 20
11.75
 30
0.0
 11
-10.0
 21
11.75
 31
0.0
  0
LINE
  5
9D
100
AcDbEntity
100
AcDbLine
  8
outlines
 62
256
370
-1
  6
ByLayer
 10
-10.0
 20
16.0
 30
0.0
 11
-1.25
 21
16.0
 31
0.0
  0
LINE
  5
9E
100
AcDbEntity
100
AcDbLine
  8
outlines
 62
256
370
-1
  6
ByLayer
 10
-1.25
 20
16.0
 30
0.0
 11
-1.25
 21
11.75
 31
0.0
  0
LINE
  5
9F
100
AcDbEntity
100
AcDbLine
  8
outlines
 62
256
370
-1
  6
ByLayer
 10
-10.0
 20
11.75
 30
0.0
 11
-10.0
 21
16.0
 31
0.0
  0
LINE
  5
A0
100
AcDbEntity
100
AcDbLine
  8
outlines
 62
256
370
-1
  6
ByLayer
 10
-32.1010000000000062
 20
7.9510000000000023
 30
0.0
 11
-26.9590000000000103
 21
7.9510000000000023
 31
0.0
  0
ARC
  5
A1
100
AcDbEntity
  8
outlines
 62
256
370
-1
  6
ByLayer
100
AcDbCircle
 10
-26.9590000000000103
 20
8.2010000000000023
 30
0.0
 40
0.25
100
AcDbArc
 50
270.0
 51
0.0
  0
LINE
  5
A2
100
AcDbEntity
100
AcDbLine
  8
notes
 62
256
370
-1
  6
ByLayer
 10
-21.0
 20
19.6000000000000014
 30
0.0
 11
-11.0
 21
19.6000000000000014
 31
0.0
  0
LINE
  5
A3
100
AcDbEntity
100
AcDbLine
  8
notes
 62
256
370
-1
  6
ByLayer
 10
-11.0
 20
19.6000000000000014
 30
0.0
 11
-11.0
 21
19.1000000000000014
 31
0.0
  0
LINE
  5
A4
100
AcDbEntity
100
AcDbLine
  8
notes
 62
256
370
-1
  6
ByLayer
 10
-11.0
 20
19.1000000000000014
 30
0.0
 11
-21.0
 21
19.1000000000000014
 31
0.0
  0
LINE
  5
A5
100
AcDbEntity
100
AcDbLine
  8
notes
 62
256
370
-1
  6
ByLayer
 10
-21.0
 20
19.1000000000000014
 30
0.0
 11
-21.0
 21
19.6000000000000014
 31
0.0
  0
LINE
  5
A6
100
AcDbEntity
100
AcDbLine
  8
outlines
 62
256
370
-1
  6
ByLayer
 10
-32.1010000000000062
 20
7.9510000000000023
 30
0.0
 11
-32.1010000000000062
 21
6.4510000000000023
 31
0.0
  0
LINE
  5
A7
100
AcDbEntity
100
AcDbLine
  8
outlines
 62
256
370
-1
  6
ByLayer
 10
-32.0
 20
21.1000000000000014
 30
0.0
 11
-22.0
 21
21.1000000000000014
 31
0.0
  0
LINE
  5
A8
100
AcDbEntity
100
AcDbLine
  8
outlines
 62
256
370
-1
  6
ByLayer
 10
-22.0
 20
21.1000000000000014
 30
0.0
 11
-22.0
 21
19.6000000000000014
 31
0.0
  0
LINE
  5
A9
100
AcDbEntity
100
AcDbLine
  8
outlines
 62
256
370
-1
  6
ByLayer
 10
-22.0
 20
19.6000000000000014
 30
0.0
 11
-32.0
 21
19.6000000000000014
 31
0.0
  0
LINE
  5
AA
100
AcDbEntity
100
AcDbLine
  8
outlines
 62
256
370
-1
  6
ByLayer
 10
-32.0
 20
19.6000000000000014
 30
0.0
 11
-32.0
 21
21.1000000000000014
 31
0.0
  0
LINE
  5
AB
100
AcDbEntity
100
AcDbLine
  8
outlines
 62
256
370
-1
  6
ByLayer
 10
-26.4590000000000103
 20
13.7760000000000034
 30
0.0
 11
-23.1010000000000062
 21
13.7760000000000034
 31
0.0
  0
LINE
  5
AC
100
AcDbEntity
100
AcDbLine
  8
outlines
 62
256
370
-1
  6
ByLayer
 10
-11.0
 20
26.9250000000000007
 30
0.0
 11
-21.0
 21
26.9250000000000007
 31
0.0
  0
LINE
  5
AD
100
AcDbEntity
100
AcDbLine
  8
notes
 62
256
370
-1
  6
ByLayer
 10
-23.1010000000000062
 20
13.7760000000000034
 30
0.0
 11
-22.6010000000000062
 21
13.7760000000000034
 31
0.0
  0
ARC
  5
AE
100
AcDbEntity
  8
outlines
 62
256
370
-1
  6
ByLayer
100
AcDbCircle
 10
-26.4590000000000103
 20
13.5260000000000034
 30
0.0
 40
0.25
100
AcDbArc
 50
90.0
 51
180.0
  0
LINE
  5
AF
100
AcDbEntity
100
AcDbLine
  8
outlines
 62
256
370
-1
  6
ByLayer
 10
-26.7090000000000103
 20
13.5260000000000034
 30
0.0
 11
-26.7090000000000103
 21
8.2010000000000023
 31
0.0
  0
LINE
  5
B0
100
AcDbEntity
100
AcDbLine
  8
outlines
 62
256
370
-1
  6
ByLayer
 10
-23.1010000000000062
 20
13.7760000000000034
 30
0.0
 11
-23.1010000000000062
 21
6.4510000000000023
 31
0.0
  0
LINE
  5
B1
100
AcDbEntity
100
AcDbLine
  8
notes
 62
256
370
-1
  6
ByLayer
 10
-22.6010000000000062
 20
13.7760000000000034
 30
0.0
 11
-22.6010000000000062
 21
6.4510000000000023
 31
0.0
  0
LINE
  5
B2
100
AcDbEntity
100
AcDbLine
  8
outlines
 62
256
370
-1
  6
ByLayer
 10
-21.0
 20
26.9250000000000007
 30
0.0
 11
-21.0
 21
19.6000000000000014
 31
0.0
  0
LINE
  5
B3
100
AcDbEntity
100
AcDbLine
  8
outlines
 62
256
370
-1
  6
ByLayer
 10
-11.0
 20
26.9250000000000007
 30
0.0
 11
-11.0
 21
19.6000000000000014
 31
0.0
  0
LINE
  5
B4
100
AcDbEntity
100
AcDbLine
  8
outlines
 62
256
370
-1
  6
ByLayer
 10
-11.1010000000000062
 20
6.4510000000000023
 30
0.0
 11
-20.1010000000000062
 21
6.4510000000000032
 31
0.0
  0
LINE
  5
B5
100
AcDbEntity
100
AcDbLine
  8
outlines
 62
256
370
-1
  6
ByLayer
 10
-11.1010000000000062
 20
7.9510000000000023
 30
0.0
 11
-16.2430000000000021
 21
7.9510000000000023
 31
0.0
  0
ARC
  5
B6
100
AcDbEntity
  8
outlines
 62
256
370
-1
  6
ByLayer
100
AcDbCircle
 10
-16.2430000000000021
 20
8.2010000000000023
 30
0.0
 40
0.25
100
AcDbArc
 50
180.0
 51
270.0
  0
LINE
  5
B7
100
AcDbEntity
100
AcDbLine
  8
outlines
 62
256
370
-1
  6
ByLayer
 10
-11.1010000000000062
 20
7.9510000000000023
 30
0.0
 11
-11.1010000000000062
 21
6.4510000000000023
 31
0.0
  0
LINE
  5
B8
100
AcDbEntity
100
AcDbLine
  8
outlines
 62
256
370
-1
  6
ByLayer
 10
-16.7430000000000021
 20
13.7760000000000034
 30
0.0
 11
-20.1010000000000062
 21
13.7760000000000034
 31
0.0
  0
ARC
  5
B9
100
AcDbEntity
  8
outlines
 62
256
370
-1
  6
ByLayer
100
AcDbCircle
 10
-16.7430000000000021
 20
13.5260000000000034
 30
0.0
 40
0.25
100
AcDbArc
 50
0.0
 51
90.0
  0
LINE
  5
BA
100
AcDbEntity
100
AcDbLine
  8
outlines
 62
256
370
-1
  6
ByLayer
 10
-16.4930000000000021
 20
13.5260000000000034
 30
0.0
 11
-16.4930000000000021
 21
8.2010000000000023
 31
0.0
  0
LINE
  5
BB
100
AcDbEntity
100
AcDbLine
  8
outlines
 62
256
370
-1
  6
ByLayer
 10
-20.1010000000000062
 20
13.7760000000000034
 30
0.0
 11
-20.1010000000000062
 21
6.4510000000000032
 31
0.0
  0
LINE
  5
BC
100
AcDbEntity
100
AcDbLine
  8
outlines
 62
256
370
-1
  6
ByLayer
 10
1.0
 20
19.0110000000000028
 30
0.0
 11
4.0
 21
19.0110000000000028
 31
0.0
  0
LINE
  5
BD
100
AcDbEntity
100
AcDbLine
  8
outlines
 62
256
370
-1
  6
ByLayer
 10
7.9999999999999964
 20
21.4610000000000056
 30
0.0
 11
4.9999999999999964
 21
21.4610000000000056
 31
0.0
  0
CIRCLE
  5
BE
100
AcDbEntity
100
AcDbCircle
  8
holes
 62
256
370
-1
  6
ByLayer
 10
-4.9999999999999991
 20
26.5499999999999972
 30
0.0
 40
0.063
  0
CIRCLE
  5
BF
100
AcDbEntity
100
AcDbCircle
  8
holes
 62
256
370
-1
  6
ByLayer
 10
-0.2499999999999996
 20
21.7999999999999972
 30
0.0
 40
0.063
  0
CIRCLE
  5
C0
100
AcDbEntity
100
AcDbCircle
  8
holes
 62
256
370
-1
  6
ByLayer
 10
-5.0000000000000018
 20
17.0499999999999972
 30
0.0
 40
0.063
  0
CIRCLE
  5
C1
100
AcDbEntity
100
AcDbCircle
  8
holes
 62
256
370
-1
  6
ByLayer
 10
-9.7499999999999964
 20
21.8000000000000007
 30
0.0
 40
0.063
  0
CIRCLE
  5
C2
100
AcDbEntity
100
AcDbCircle
  8
holes
 62
256
370
-1
  6
ByLayer
 10
-25.0
 20
20.4750000000000014
 30
0.0
 40
0.063
  0
CIRCLE
  5
C3
100
AcDbEntity
100
AcDbCircle
  8
holes
 62
256
370
-1
  6
ByLayer
 10
-29.0
 20
20.4750000000000014
 30
0.0
 40
0.063
  0
CIRCLE
  5
C4
100
AcDbEntity
100
AcDbCircle
  8
holes
 62
256
370
-1
  6
ByLayer
 10
3.5000000000000071
 20
17.3500000000000085
 30
0.0
 40
0.063
  0
CIRCLE
  5
C5
100
AcDbEntity
100
AcDbCircle
  8
holes
 62
256
370
-1
  6
ByLayer
 10
3.5000000000000071
 20
14.3500000000000085
 30
0.0
 40
0.063
  0
CIRCLE
  5
C6
100
AcDbEntity
100
AcDbCircle
  8
holes
 62
256
370
-1
  6
ByLayer
 10
1.5
 20
14.3500000000000085
 30
0.0
 40
0.063
  0
CIRCLE
  5
C7
100
AcDbEntity
100
AcDbCircle
  8
holes
 62
256
370
-1
  6
ByLayer
 10
1.5
 20
17.3500000000000085
 30
0.0
 40
0.063
  0
CIRCLE
  5
C8
100
AcDbEntity
100
AcDbCircle
  8
notes
 62
256
370
-1
  6
ByLayer
 10
-29.0
 20
20.4750000000000014
 30
0.0
 40
0.184
  0
CIRCLE
  5
C9
100
AcDbEntity
100
AcDbCircle
  8
notes
 62
256
370
-1
  6
ByLayer
 10
-25.0
 20
20.4750000000000014
 30
0.0
 40
0.184
  0
CIRCLE
  5
CA
100
AcDbEntity
100
AcDbCircle
  8
notes
 62
256
370
-1
  6
ByLayer
 10
-18.0
 20
20.4750000000000014
 30
0.0
 40
0.184
  0
CIRCLE
  5
CB
100
AcDbEntity
100
AcDbCircle
  8
notes
 62
256
370
-1
  6
ByLayer
 10
-14.0
 20
20.4750000000000014
 30
0.0
 40
0.184
  0
CIRCLE
  5
CC
100
AcDbEntity
100
AcDbCircle
  8
notes
 62
256
370
-1
  6
ByLayer
 10
1.5
 20
14.3500000000000085
 30
0.0
 40
0.184
  0
CIRCLE
  5
CD
100
AcDbEntity
100
AcDbCircle
  8
notes
 62
256
370
-1
  6
ByLayer
 10
3.5000000000000071
 20
14.3500000000000085
 30
0.0
 40
0.184
  0
CIRCLE
  5
CE
100
AcDbEntity
100
AcDbCircle
  8
notes
 62
256
370
-1
  6
ByLayer
 10
1.5
 20
17.3500000000000085
 30
0.0
 40
0.184
  0
CIRCLE
  5
CF
100
AcDbEntity
100
AcDbCircle
  8
notes
 62
256
370
-1
  6
ByLayer
 10
3.5000000000000071
 20
17.3500000000000085
 30
0.0
 40
0.184
  0
LINE
  5
D0
100
AcDbEntity
100
AcDbLine
  8
outlines
 62
256
370
-1
  6
ByLayer
 10
-1.25
 20
6.75
 30
0.0
 11
-10.0
 21
6.75
 31
0.0
  0
LINE
  5
D1
100
AcDbEntity
100
AcDbLine
  8
outlines
 62
256
370
-1
  6
ByLayer
 10
-10.0
 20
11.0
 30
0.0
 11
-1.25
 21
11.0
 31
0.0
  0
LINE
  5
D2
100
AcDbEntity
100
AcDbLine
  8
outlines
 62
256
370
-1
  6
ByLayer
 10
-1.25
 20
11.0
 30
0.0
 11
-1.25
 21
6.75
 31
0.0
  0
LINE
  5
D3
100
AcDbEntity
100
AcDbLine
  8
outlines
 62
256
370
-1
  6
ByLayer
 10
-10.0
 20
6.75
 30
0.0
 11
-10.0
 21
11.0
 31
0.0
  0
CIRCLE
  5
D4
100
AcDbEntity
100
AcDbCircle
  8
holes
 62
256
370
-1
  6
ByLayer
 10
-9.0
 20
9.96875
 30
0.0
 40
0.089
  0
CIRCLE
  5
D5
100
AcDbEntity
100
AcDbCircle
  8
holes
 62
256
370
-1
  6
ByLayer
 10
-2.25
 20
9.96875
 30
0.0
 40
0.089
  0
CIRCLE
  5
D6
100
AcDbEntity
100
AcDbCircle
  8
holes
 62
256
370
-1
  6
ByLayer
 10
-2.25
 20
7.78125
 30
0.0
 40
0.089
  0
CIRCLE
  5
D7
100
AcDbEntity
100
AcDbCircle
  8
holes
 62
256
370
-1
  6
ByLayer
 10
-9.0
 20
7.78125
 30
0.0
 40
0.089
  0
LINE
  5
D8
100
AcDbEntity
100
AcDbLine
  8
outlines
 62
256
370
-1
  6
ByLayer
 10
4.0
 20
25.6110000000000042
 30
0.0
 11
1.0
 21
25.6110000000000042
 31
0.0
  0
LINE
  5
D9
100
AcDbEntity
100
AcDbLine
  8
outlines
 62
256
370
-1
  6
ByLayer
 10
1.0
 20
25.6110000000000042
 30
0.0
 11
1.0
 21
19.0110000000000028
 31
0.0
  0
LINE
  5
DA
100
AcDbEntity
100
AcDbLine
  8
outlines
 62
256
370
-1
  6
ByLayer
 10
4.0
 20
19.0110000000000028
 30
0.0
 11
4.0
 21
25.6110000000000042
 31
0.0
  0
LINE
  5
DB
100
AcDbEntity
100
AcDbLine
  8
outlines
 62
256
370
-1
  6
ByLayer
 10
7.9999999999999964
 20
25.5110000000000063
 30
0.0
 11
4.9999999999999964
 21
25.5110000000000063
 31
0.0
  0
LINE
  5
DC
100
AcDbEntity
100
AcDbLine
  8
outlines
 62
256
370
-1
  6
ByLayer
 10
5.0
 20
25.5110000000000063
 30
0.0
 11
4.9999999999999964
 21
21.4610000000000056
 31
0.0
  0
LINE
  5
DD
100
AcDbEntity
100
AcDbLine
  8
outlines
 62
256
370
-1
  6
ByLayer
 10
8.0
 20
25.5110000000000063
 30
0.0
 11
7.9999999999999964
 21
21.4610000000000056
 31
0.0
  0
CIRCLE
  5
DE
100
AcDbEntity
100
AcDbCircle
  8
holes
 62
256
370
-1
  6
ByLayer
 10
3.2349999999999981
 20
6.232999999999997
 30
0.0
 40
0.065
  0
CIRCLE
  5
DF
100
AcDbEntity
100
AcDbCircle
  8
holes
 62
256
370
-1
  6
ByLayer
 10
4.299000000000003
 20
6.232999999999997
 30
0.0
 40
0.065
  0
CIRCLE
  5
E0
100
AcDbEntity
100
AcDbCircle
  8
holes
 62
256
370
-1
  6
ByLayer
 10
3.7670000000000003
 20
5.7009999999999987
 30
0.0
 40
0.065
  0
CIRCLE
  5
E1
100
AcDbEntity
100
AcDbCircle
  8
holes
 62
256
370
-1
  6
ByLayer
 10
2.5
 20
16.8079999999999998
 30
0.0
 40
0.375
  0
CIRCLE
  5
E2
100
AcDbEntity
100
AcDbCircle
  8
holes
 62
256
370
-1
  6
ByLayer
 10
2.5
 20
13.8079999999999998
 30
0.0
 40
0.375
  0
CIRCLE
  5
E3
100
AcDbEntity
100
AcDbCircle
  8
holes
 62
256
370
-1
  6
ByLayer
 10
1.9679999999999978
 20
13.8079999999999981
 30
0.0
 40
0.065
  0
CIRCLE
  5
E4
100
AcDbEntity
100
AcDbCircle
  8
holes
 62
256
370
-1
  6
ByLayer
 10
3.0320000000000022
 20
13.8079999999999981
 30
0.0
 40
0.065
  0
CIRCLE
  5
E5
100
AcDbEntity
100
AcDbCircle
  8
holes
 62
256
370
-1
  6
ByLayer
 10
1.9679999999999978
 20
16.8079999999999998
 30
0.0
 40
0.065
  0
CIRCLE
  5
E6
100
AcDbEntity
100
AcDbCircle
  8
holes
 62
256
370
-1
  6
ByLayer
 10
3.0320000000000022
 20
16.8079999999999998
 30
0.0
 40
0.065
  0
CIRCLE
  5
E7
100
AcDbEntity
100
AcDbCircle
  8
holes
 62
256
370
-1
  6
ByLayer
 10
2.5
 20
16.2759999999999998
 30
0.0
 40
0.065
  0
CIRCLE
  5
E8
100
AcDbEntity
100
AcDbCircle
  8
notes
 62
256
370
-1
  6
ByLayer
 10
3.7670000000000003
 20
6.2329999999999988
 30
0.0
 40
0.542
  0
LINE
  5
E9
100
AcDbEntity
100
AcDbLine
  8
outlines
 62
256
370
-1
  6
ByLayer
 10
3.0625000000000004
 20
6.7000000000000002
 30
0.0
 11
4.4715000000000034
 21
6.7000000000000002
 31
0.0
  0
ARC
  5
EA
100
AcDbEntity
  8
outlines
 62
256
370
-1
  6
ByLayer
100
AcDbCircle
 10
4.4715000000000034
 20
6.6375000000000002
 30
0.0
 40
0.0625
100
AcDbArc
 50
0.0
 51
90.0
  0
ARC
  5
EB
100
AcDbEntity
  8
outlines
 62
256
370
-1
  6
ByLayer
100
AcDbCircle
 10
3.0625000000000004
 20
6.6375000000000002
 30
0.0
 40
0.0625
100
AcDbArc
 50
90.0
 51
180.0
  0
CIRCLE
  5
EC
100
AcDbEntity
100
AcDbCircle
  8
notes
 62
256
370
-1
  6
ByLayer
 10
1.5000000000000004
 20
11.3500000000000085
 30
0.0
 40
0.184
  0
CIRCLE
  5
ED
100
AcDbEntity
100
AcDbCircle
  8
notes
 62
256
370
-1
  6
ByLayer
 10
3.5000000000000089
 20
11.3500000000000085
 30
0.0
 40
0.184
  0
CIRCLE
  5
EE
100
AcDbEntity
100
AcDbCircle
  8
holes
 62
256
370
-1
  6
ByLayer
 10
2.500000000000004
 20
9.3100000000000094
 30
0.0
 40
0.25
  0
LINE
  5
EF
100
AcDbEntity
100
AcDbLine
  8
outlines
 62
256
370
-1
  6
ByLayer
 10
1.062500000000002
 20
11.7875000000000085
 30
0.0
 11
3.9375000000000089
 21
11.7875000000000085
 31
0.0
  0
LINE
  5
F0
100
AcDbEntity
100
AcDbLine
  8
outlines
 62
256
370
-1
  6
ByLayer
 10
1.062500000000002
 20
11.7875000000000085
 30
0.0
 11
1.0625
 21
8.8100000000000094
 31
0.0
  0
LINE
  5
F1
100
AcDbEntity
100
AcDbLine
  8
outlines
 62
256
370
-1
  6
ByLayer
 10
3.9375000000000089
 20
11.7875000000000085
 30
0.0
 11
3.9375000000000071
 21
8.8100000000000076
 31
0.0
  0
LINE
  5
F2
100
AcDbEntity
100
AcDbLine
  8
outlines
 62
256
370
-1
  6
ByLayer
 10
1.0625
 20
8.8100000000000094
 30
0.0
 11
3.9375000000000071
 21
8.8100000000000076
 31
0.0
  0
CIRCLE
  5
F3
100
AcDbEntity
100
AcDbCircle
  8
holes
 62
256
370
-1
  6
ByLayer
 10
1.9679999999999984
 20
10.8079999999999981
 30
0.0
 40
0.065
  0
CIRCLE
  5
F4
100
AcDbEntity
100
AcDbCircle
  8
holes
 62
256
370
-1
  6
ByLayer
 10
3.0320000000000036
 20
10.8079999999999981
 30
0.0
 40
0.065
  0
LINE
  5
F5
100
AcDbEntity
100
AcDbLine
  8
outlines
 62
256
370
-1
  6
ByLayer
 10
4.0000000000000071
 20
16.1000000000000085
 30
0.0
 11
1.0
 21
16.1000000000000085
 31
0.0
  0
LINE
  5
F6
100
AcDbEntity
100
AcDbLine
  8
outlines
 62
256
370
-1
  6
ByLayer
 10
4.0000000000000071
 20
13.1000000000000085
 30
0.0
 11
1.0
 21
13.1000000000000085
 31
0.0
  0
LINE
  5
F7
100
AcDbEntity
100
AcDbLine
  8
notes
 62
256
370
-1
  6
ByLayer
 10
-9.375
 20
21.6750000000000007
 30
0.0
 11
-9.375
 21
17.4250000000000007
 31
0.0
  0
LINE
  5
F8
100
AcDbEntity
100
AcDbLine
  8
notes
 62
256
370
-1
  6
ByLayer
 10
-26.3090000000000082
 20
13.5509999999999984
 30
0.0
 11
-26.3090000000000082
 21
12.6759999999999984
 31
0.0
  0
CIRCLE
  5
F9
100
AcDbEntity
100
AcDbCircle
  8
notes
 62
256
370
-1
  6
ByLayer
 10
-25.5590000000000046
 20
13.1510000000000034
 30
0.0
 40
0.25
  0
LINE
  5
FA
100
AcDbEntity
100
AcDbLine
  8
notes
 62
256
370
-1
  6
ByLayer
 10
-26.8090000000000046
 20
12.3010000000000019
 30
0.0
 11
-27.3090000000000046
 21
12.3010000000000019
 31
0.0
  0
LINE
  5
FB
100
AcDbEntity
100
AcDbLine
  8
notes
 62
256
370
-1
  6
ByLayer
 10
-27.3090000000000046
 20
12.3010000000000019
 30
0.0
 11
-27.3090000000000046
 21
13.1760000000000019
 31
0.0
  0
LINE
  5
FC
100
AcDbEntity
100
AcDbLine
  8
notes
 62
256
370
-1
  6
ByLayer
 10
-27.3090000000000046
 20
13.1760000000000019
 30
0.0
 11
-26.8090000000000046
 21
13.1760000000000019
 31
0.0
  0
LINE
  5
FD
100
AcDbEntity
100
AcDbLine
  8
notes
 62
256
370
-1
  6
ByLayer
 10
-26.409000000000006
 20
10.8510000000000026
 30
0.0
 11
-26.409000000000006
 21
9.8510000000000026
 31
0.0
  0
LINE
  5
FE
100
AcDbEntity
100
AcDbLine
  8
notes
 62
256
370
-1
  6
ByLayer
 10
-26.3090000000000046
 20
12.3010000000000019
 30
0.0
 11
-26.8090000000000046
 21
12.3010000000000019
 31
0.0
  0
CIRCLE
  5
FF
100
AcDbEntity
100
AcDbCircle
  8
holes
 62
256
370
-1
  6
ByLayer
 10
-25.5590000000000046
 20
13.1510000000000034
 30
0.0
 40
0.063
  0
CIRCLE
  5
100
100
AcDbEntity
100
AcDbCircle
  8
notes
 62
256
370
-1
  6
ByLayer
 10
-25.5590000000000046
 20
13.1510000000000034
 30
0.0
 40
0.184
  0
CIRCLE
  5
101
100
AcDbEntity
100
AcDbCircle
  8
holes
 62
256
370
-1
  6
ByLayer
 10
-24.0590000000000046
 20
13.1510000000000034
 30
0.0
 40
0.063
  0
LINE
  5
102
100
AcDbEntity
100
AcDbLine
  8
notes
 62
256
370
-1
  6
ByLayer
 10
-26.8090000000000011
 20
15.8509999999999991
 30
0.0
 11
-26.8090000000000046
 21
12.3010000000000019
 31
0.0
  0
LINE
  5
103
100
AcDbEntity
100
AcDbLine
  8
notes
 62
256
370
-1
  6
ByLayer
 10
-24.2290000000000063
 20
12.1050000000000004
 30
0.0
 11
-24.2290000000000099
 21
11.2300000000000004
 31
0.0
  0
LINE
  5
104
100
AcDbEntity
100
AcDbLine
  8
notes
 62
256
370
-1
  6
ByLayer
 10
-24.2290000000000099
 20
11.2300000000000004
 30
0.0
 11
-25.8090000000000046
 21
11.2300000000000004
 31
0.0
  0
LINE
  5
105
100
AcDbEntity
100
AcDbLine
  8
notes
 62
256
370
-1
  6
ByLayer
 10
-25.8090000000000046
 20
12.8000000000000007
 30
0.0
 11
-24.2290000000000063
 21
12.8000000000000007
 31
0.0
  0
LINE
  5
106
100
AcDbEntity
100
AcDbLine
  8
notes
 62
256
370
-1
  6
ByLayer
 10
-24.2290000000000063
 20
12.8000000000000007
 30
0.0
 11
-24.2290000000000099
 21
11.2300000000000004
 31
0.0
  0
LINE
  5
107
100
AcDbEntity
100
AcDbLine
  8
notes
 62
256
370
-1
  6
ByLayer
 10
-24.5860000000000056
 20
12.8000000000000007
 30
0.0
 11
-24.5860000000000056
 21
12.8800000000000008
 31
0.0
  0
LINE
  5
108
100
AcDbEntity
100
AcDbLine
  8
notes
 62
256
370
-1
  6
ByLayer
 10
-24.5860000000000056
 20
12.8800000000000008
 30
0.0
 11
-25.4520000000000053
 21
12.8800000000000008
 31
0.0
  0
LINE
  5
109
100
AcDbEntity
100
AcDbLine
  8
notes
 62
256
370
-1
  6
ByLayer
 10
-25.4520000000000053
 20
12.8800000000000008
 30
0.0
 11
-25.4520000000000053
 21
12.8000000000000007
 31
0.0
  0
CIRCLE
  5
10A
100
AcDbEntity
100
AcDbCircle
  8
notes
 62
256
370
-1
  6
ByLayer
 10
-25.5590000000000046
 20
10.8510000000000009
 30
0.0
 40
0.25
  0
MTEXT
  5
10B
100
AcDbEntity
100
AcDbMText
  8
notes
 62
256
370
-1
  6
ByLayer
 10
-25.7090000000000103
 20
10.9510000000000005
 30
0.0
 40
0.25
 41
100.0
 71
1
 72
2
  1
LS
  7
normallatin1
 50
0.0
 73
0
 44
1.0
  0
CIRCLE
  5
10C
100
AcDbEntity
100
AcDbCircle
  8
holes
 62
256
370
-1
  6
ByLayer
 10
-25.5590000000000046
 20
10.8510000000000009
 30
0.0
 40
0.433
  0
CIRCLE
  5
10D
100
AcDbEntity
100
AcDbCircle
  8
holes
 62
256
370
-1
  6
ByLayer
 10
-24.9490000000000052
 20
11.4610000000000003
 30
0.0
 40
0.063
  0
CIRCLE
  5
10E
100
AcDbEntity
100
AcDbCircle
  8
holes
 62
256
370
-1
  6
ByLayer
 10
-24.9490000000000052
 20
10.2410000000000014
 30
0.0
 40
0.063
  0
CIRCLE
  5
10F
100
AcDbEntity
100
AcDbCircle
  8
holes
 62
256
370
-1
  6
ByLayer
 10
-26.169000000000004
 20
10.2410000000000014
 30
0.0
 40
0.063
  0
CIRCLE
  5
110
100
AcDbEntity
100
AcDbCircle
  8
holes
 62
256
370
-1
  6
ByLayer
 10
-26.169000000000004
 20
11.4610000000000003
 30
0.0
 40
0.063
  0
CIRCLE
  5
111
100
AcDbEntity
100
AcDbCircle
  8
notes
 62
256
370
-1
  6
ByLayer
 10
-25.5590000000000046
 20
10.0510000000000019
 30
0.0
 40
0.25
  0
CIRCLE
  5
112
100
AcDbEntity
100
AcDbCircle
  8
holes
 62
256
370
-1
  6
ByLayer
 10
-25.5590000000000046
 20
10.0510000000000019
 30
0.0
 40
0.063
  0
CIRCLE
  5
113
100
AcDbEntity
100
AcDbCircle
  8
notes
 62
256
370
-1
  6
ByLayer
 10
-25.5590000000000046
 20
10.0510000000000019
 30
0.0
 40
0.184
  0
LINE
  5
114
100
AcDbEntity
100
AcDbLine
  8
notes
 62
256
370
-1
  6
ByLayer
 10
-25.8090000000000046
 20
9.7509999999999977
 30
0.0
 11
-26.3090000000000046
 21
9.7509999999999977
 31
0.0
  0
LINE
  5
115
100
AcDbEntity
100
AcDbLine
  8
notes
 62
256
370
-1
  6
ByLayer
 10
-25.8090000000000046
 20
15.8509999999999991
 30
0.0
 11
-25.8090000000000046
 21
9.7509999999999977
 31
0.0
  0
LINE
  5
116
100
AcDbEntity
100
AcDbLine
  8
notes
 62
256
370
-1
  6
ByLayer
 10
-26.8090000000000082
 20
15.4759999999999991
 30
0.0
 11
-27.3090000000000082
 21
15.4759999999999991
 31
0.0
  0
LINE
  5
117
100
AcDbEntity
100
AcDbLine
  8
notes
 62
256
370
-1
  6
ByLayer
 10
-27.3090000000000082
 20
15.4759999999999991
 30
0.0
 11
-27.3090000000000082
 21
16.3509999999999991
 31
0.0
  0
LINE
  5
118
100
AcDbEntity
100
AcDbLine
  8
notes
 62
256
370
-1
  6
ByLayer
 10
-26.8090000000000082
 20
16.3509999999999991
 30
0.0
 11
-26.8090000000000082
 21
15.4759999999999991
 31
0.0
  0
LINE
  5
119
100
AcDbEntity
100
AcDbLine
  8
notes
 62
256
370
-1
  6
ByLayer
 10
-26.3090000000000011
 20
16.3509999999999991
 30
0.0
 11
-26.3090000000000011
 21
9.7509999999999977
 31
0.0
  0
LINE
  5
11A
100
AcDbEntity
100
AcDbLine
  8
notes
 62
256
370
-1
  6
ByLayer
 10
-25.8090000000000046
 20
16.3509999999999991
 30
0.0
 11
-25.8090000000000046
 21
13.6300000000000008
 31
0.0
  0
LINE
  5
11B
100
AcDbEntity
100
AcDbLine
  8
notes
 62
256
370
-1
  6
ByLayer
 10
-25.2065000000000126
 20
12.8800000000000008
 30
0.0
 11
-25.2065000000000126
 21
16.3509999999999991
 31
0.0
  0
LINE
  5
11C
100
AcDbEntity
100
AcDbLine
  8
notes
 62
256
370
-1
  6
ByLayer
 10
-24.8315000000000126
 20
16.3509999999999991
 30
0.0
 11
-24.8315000000000126
 21
12.8800000000000008
 31
0.0
  0
LINE
  5
11D
100
AcDbEntity
100
AcDbLine
  8
notes
 62
256
370
-1
  6
ByLayer
 10
-27.4965000000000082
 20
16.3509999999999991
 30
0.0
 11
-27.4965000000000082
 21
16.8509999999999991
 31
0.0
  0
LINE
  5
11E
100
AcDbEntity
100
AcDbLine
  8
notes
 62
256
370
-1
  6
ByLayer
 10
-24.5815000000000126
 20
16.8509999999999991
 30
0.0
 11
-24.5815000000000126
 21
16.3509999999999991
 31
0.0
  0
LINE
  5
11F
100
AcDbEntity
100
AcDbLine
  8
notes
 62
256
370
-1
  6
ByLayer
 10
-27.4965000000000082
 20
16.8509999999999991
 30
0.0
 11
-24.5815000000000126
 21
16.8509999999999991
 31
0.0
  0
LINE
  5
120
100
AcDbEntity
100
AcDbLine
  8
notes
 62
256
370
-1
  6
ByLayer
 10
-27.3090000000000082
 20
16.3509999999999991
 30
0.0
 11
-26.8090000000000082
 21
16.3509999999999991
 31
0.0
  0
LINE
  5
121
100
AcDbEntity
100
AcDbLine
  8
notes
 62
256
370
-1
  6
ByLayer
 10
-25.2065000000000126
 20
16.3509999999999991
 30
0.0
 11
-24.8315000000000126
 21
16.3509999999999991
 31
0.0
  0
LINE
  5
122
100
AcDbEntity
100
AcDbLine
  8
notes
 62
256
370
-1
  6
ByLayer
 10
-27.4965000000000082
 20
16.3509999999999991
 30
0.0
 11
-24.5815000000000126
 21
16.3509999999999991
 31
0.0
  0
LINE
  5
123
100
AcDbEntity
100
AcDbLine
  8
notes
 62
256
370
-1
  6
ByLayer
 10
-28.1010000000000097
 20
9.8510000000000026
 30
0.0
 11
-27.1010000000000062
 21
9.8510000000000026
 31
0.0
  0
LINE
  5
124
100
AcDbEntity
100
AcDbLine
  8
notes
 62
256
370
-1
  6
ByLayer
 10
-27.1010000000000062
 20
10.8510000000000026
 30
0.0
 11
-28.1010000000000097
 21
10.8510000000000026
 31
0.0
  0
LINE
  5
125
100
AcDbEntity
100
AcDbLine
  8
notes
 62
256
370
-1
  6
ByLayer
 10
-27.8510000000000062
 20
9.8510000000000026
 30
0.0
 11
-27.3510000000000062
 21
9.8510000000000026
 31
0.0
  0
LINE
  5
126
100
AcDbEntity
100
AcDbLine
  8
notes
 62
256
370
-1
  6
ByLayer
 10
-27.3510000000000062
 20
9.8510000000000026
 30
0.0
 11
-27.3510000000000062
 21
9.2910000000000021
 31
0.0
  0
LINE
  5
127
100
AcDbEntity
100
AcDbLine
  8
notes
 62
256
370
-1
  6
ByLayer
 10
-27.3510000000000062
 20
9.2910000000000021
 30
0.0
 11
-27.8510000000000062
 21
9.2910000000000021
 31
0.0
  0
LINE
  5
128
100
AcDbEntity
100
AcDbLine
  8
notes
 62
256
370
-1
  6
ByLayer
 10
-27.8510000000000062
 20
9.2910000000000021
 30
0.0
 11
-27.8510000000000062
 21
9.8510000000000026
 31
0.0
  0
LINE
  5
129
100
AcDbEntity
100
AcDbLine
  8
notes
 62
256
370
-1
  6
ByLayer
 10
-27.8510000000000062
 20
10.8510000000000026
 30
0.0
 11
-27.3510000000000062
 21
10.8510000000000026
 31
0.0
  0
LINE
  5
12A
100
AcDbEntity
100
AcDbLine
  8
notes
 62
256
370
-1
  6
ByLayer
 10
-27.3510000000000062
 20
10.8510000000000026
 30
0.0
 11
-27.3510000000000062
 21
11.1330000000000027
 31
0.0
  0
LINE
  5
12B
100
AcDbEntity
100
AcDbLine
  8
notes
 62
256
370
-1
  6
ByLayer
 10
-27.3510000000000062
 20
11.1330000000000027
 30
0.0
 11
-27.8510000000000062
 21
11.1330000000000027
 31
0.0
  0
LINE
  5
12C
100
AcDbEntity
100
AcDbLine
  8
notes
 62
256
370
-1
  6
ByLayer
 10
-27.8510000000000062
 20
11.1330000000000027
 30
0.0
 11
-27.8510000000000062
 21
10.8510000000000026
 31
0.0
  0
LINE
  5
12D
100
AcDbEntity
100
AcDbLine
  8
notes
 62
256
370
-1
  6
ByLayer
 10
-27.7260000000000062
 20
11.1330000000000027
 30
0.0
 11
-27.4760000000000062
 21
11.1330000000000027
 31
0.0
  0
LINE
  5
12E
100
AcDbEntity
100
AcDbLine
  8
notes
 62
256
370
-1
  6
DOT
 10
-27.4760000000000062
 20
9.5760000000000023
 30
0.0
 11
-27.7260000000000062
 21
9.5760000000000023
 31
0.0
  0
LINE
  5
12F
100
AcDbEntity
100
AcDbLine
  8
notes
 62
256
370
-1
  6
DOT
 10
-27.7260000000000062
 20
11.1330000000000027
 30
0.0
 11
-27.7260000000000062
 21
9.5760000000000023
 31
0.0
  0
LINE
  5
130
100
AcDbEntity
100
AcDbLine
  8
notes
 62
256
370
-1
  6
DOT
 10
-27.4760000000000062
 20
11.1330000000000027
 30
0.0
 11
-27.4760000000000062
 21
9.5760000000000023
 31
0.0
  0
LINE
  5
131
100
AcDbEntity
100
AcDbLine
  8
notes
 62
256
370
-1
  6
ByLayer
 10
-27.4760000000000062
 20
11.5760000000000005
 30
0.0
 11
-27.7260000000000062
 21
11.5760000000000005
 31
0.0
  0
LINE
  5
132
100
AcDbEntity
100
AcDbLine
  8
notes
 62
256
370
-1
  6
ByLayer
 10
-27.7260000000000062
 20
11.5760000000000005
 30
0.0
 11
-27.7260000000000062
 21
11.1330000000000027
 31
0.0
  0
LINE
  5
133
100
AcDbEntity
100
AcDbLine
  8
notes
 62
256
370
-1
  6
ByLayer
 10
-27.4760000000000062
 20
11.1330000000000027
 30
0.0
 11
-27.4760000000000062
 21
11.5760000000000005
 31
0.0
  0
LINE
  5
134
100
AcDbEntity
100
AcDbLine
  8
notes
 62
256
370
-1
  6
DOT
 10
-27.6635000000000062
 20
9.5760000000000023
 30
0.0
 11
-27.6635000000000062
 21
9.2910000000000021
 31
0.0
  0
LINE
  5
135
100
AcDbEntity
100
AcDbLine
  8
notes
 62
256
370
-1
  6
DOT
 10
-27.5385000000000062
 20
9.2910000000000021
 30
0.0
 11
-27.5385000000000062
 21
9.5760000000000023
 31
0.0
  0
LINE
  5
136
100
AcDbEntity
100
AcDbLine
  8
notes
 62
256
370
-1
  6
ByLayer
 10
-27.6635000000000062
 20
8.0760000000000023
 30
0.0
 11
-27.5385000000000062
 21
8.0760000000000023
 31
0.0
  0
LINE
  5
137
100
AcDbEntity
100
AcDbLine
  8
notes
 62
256
370
-1
  6
ByLayer
 10
-27.6635000000000062
 20
9.2910000000000021
 30
0.0
 11
-27.6635000000000062
 21
8.0760000000000023
 31
0.0
  0
LINE
  5
138
100
AcDbEntity
100
AcDbLine
  8
notes
 62
256
370
-1
  6
ByLayer
 10
-27.5385000000000062
 20
8.0760000000000023
 30
0.0
 11
-27.5385000000000062
 21
9.2910000000000021
 31
0.0
  0
LINE
  5
139
100
AcDbEntity
100
AcDbLine
  8
notes
 62
256
370
-1
  6
ByLayer
 10
-28.1430000000000078
 20
12.2900000000000045
 30
0.0
 11
-27.0590000000000046
 21
12.2900000000000045
 31
0.0
  0
LINE
  5
13A
100
AcDbEntity
100
AcDbLine
  8
notes
 62
256
370
-1
  6
ByLayer
 10
-27.6465000000000103
 20
11.6760000000000002
 30
0.0
 11
-27.5555000000000021
 21
11.6760000000000002
 31
0.0
  0
LINE
  5
13B
100
AcDbEntity
100
AcDbLine
  8
notes
 62
256
370
-1
  6
ByLayer
 10
-27.0590000000000046
 20
12.2900000000000045
 30
0.0
 11
-27.0590000000000046
 21
13.6899999999999959
 31
0.0
  0
LINE
  5
13C
100
AcDbEntity
100
AcDbLine
  8
notes
 62
256
370
-1
  6
ByLayer
 10
-28.1430000000000078
 20
13.6899999999999959
 30
0.0
 11
-28.1430000000000078
 21
12.2900000000000045
 31
0.0
  0
LINE
  5
13D
100
AcDbEntity
100
AcDbLine
  8
notes
 62
256
370
-1
  6
ByLayer
 10
-27.7980000000000089
 20
12.2900000000000045
 30
0.0
 11
-27.4040000000000035
 21
12.2900000000000045
 31
0.0
  0
LINE
  5
13E
100
AcDbEntity
100
AcDbLine
  8
notes
 62
256
370
-1
  6
ByLayer
 10
-27.4040000000000035
 20
12.1899999999999959
 30
0.0
 11
-27.7980000000000089
 21
12.1899999999999959
 31
0.0
  0
LINE
  5
13F
100
AcDbEntity
100
AcDbLine
  8
notes
 62
256
370
-1
  6
ByLayer
 10
-27.6465000000000103
 20
12.1899999999999959
 30
0.0
 11
-27.6465000000000103
 21
11.6760000000000002
 31
0.0
  0
LINE
  5
140
100
AcDbEntity
100
AcDbLine
  8
notes
 62
256
370
-1
  6
ByLayer
 10
-27.5555000000000021
 20
11.6760000000000002
 30
0.0
 11
-27.5555000000000092
 21
12.1899999999999959
 31
0.0
  0
LINE
  5
141
100
AcDbEntity
100
AcDbLine
  8
notes
 62
256
370
-1
  6
ByLayer
 10
-27.4040000000000035
 20
12.1899999999999959
 30
0.0
 11
-27.4040000000000035
 21
12.2900000000000045
 31
0.0
  0
LINE
  5
142
100
AcDbEntity
100
AcDbLine
  8
notes
 62
256
370
-1
  6
ByLayer
 10
-27.7980000000000089
 20
12.1899999999999959
 30
0.0
 11
-27.7980000000000089
 21
12.2900000000000045
 31
0.0
  0
LINE
  5
143
100
AcDbEntity
100
AcDbLine
  8
notes
 62
256
370
-1
  6
ByLayer
 10
-27.0590000000000046
 20
13.6899999999999959
 30
0.0
 11
-28.1430000000000078
 21
13.6899999999999959
 31
0.0
  0
CIRCLE
  5
144
100
AcDbEntity
100
AcDbCircle
  8
notes
 62
256
370
-1
  6
ByLayer
 10
-17.6430000000000078
 20
13.1510000000000016
 30
0.0
 40
0.184
  0
CIRCLE
  5
145
100
AcDbEntity
100
AcDbCircle
  8
holes
 62
256
370
-1
  6
ByLayer
 10
-19.1430000000000078
 20
13.1510000000000034
 30
0.0
 40
0.063
  0
CIRCLE
  5
146
100
AcDbEntity
100
AcDbCircle
  8
notes
 62
256
370
-1
  6
ByLayer
 10
-17.6430000000000078
 20
10.0510000000000037
 30
0.0
 40
0.184
  0
LINE
  5
147
100
AcDbEntity
100
AcDbLine
  8
notes
 62
256
370
-1
  6
ByLayer
 10
-9.375
 20
23.0920000000000023
 30
0.0
 11
-6.3749999999999929
 21
23.0920000000000023
 31
0.0
  0
LINE
  5
148
100
AcDbEntity
100
AcDbLine
  8
notes
 62
256
370
-1
  6
ByLayer
 10
-9.375
 20
23.5919999999999987
 30
0.0
 11
-6.3749999999999929
 21
23.5919999999999987
 31
0.0
  0
LINE
  5
149
100
AcDbEntity
100
AcDbLine
  8
notes
 62
256
370
-1
  6
ByLayer
 10
-8.664999999999992
 20
23.5919999999999987
 30
0.0
 11
-7.0849999999999937
 21
23.5919999999999987
 31
0.0
  0
LINE
  5
14A
100
AcDbEntity
100
AcDbLine
  8
notes
 62
256
370
-1
  6
ByLayer
 10
-9.375
 20
23.5919999999999987
 30
0.0
 11
-9.375
 21
24.0919999999999987
 31
0.0
  0
LINE
  5
14B
100
AcDbEntity
100
AcDbLine
  8
notes
 62
256
370
-1
  6
ByLayer
 10
-9.375
 20
24.0919999999999987
 30
0.0
 11
-8.5
 21
24.0919999999999987
 31
0.0
  0
LINE
  5
14C
100
AcDbEntity
100
AcDbLine
  8
notes
 62
256
370
-1
  6
ByLayer
 10
-8.5
 20
24.0919999999999987
 30
0.0
 11
-8.5
 21
23.5919999999999987
 31
0.0
  0
LINE
  5
14D
100
AcDbEntity
100
AcDbLine
  8
notes
 62
256
370
-1
  6
ByLayer
 10
-8.5
 20
23.5919999999999987
 30
0.0
 11
-9.375
 21
23.5919999999999987
 31
0.0
  0
LINE
  5
14E
100
AcDbEntity
100
AcDbLine
  8
notes
 62
256
370
-1
  6
ByLayer
 10
-6.3749999999999929
 20
23.5919999999999987
 30
0.0
 11
-6.3749999999999929
 21
24.0919999999999987
 31
0.0
  0
LINE
  5
14F
100
AcDbEntity
100
AcDbLine
  8
notes
 62
256
370
-1
  6
ByLayer
 10
-6.3749999999999929
 20
24.0919999999999987
 30
0.0
 11
-7.2499999999999929
 21
24.0919999999999987
 31
0.0
  0
LINE
  5
150
100
AcDbEntity
100
AcDbLine
  8
notes
 62
256
370
-1
  6
ByLayer
 10
-7.2499999999999929
 20
24.0919999999999987
 30
0.0
 11
-7.2499999999999929
 21
23.5919999999999987
 31
0.0
  0
LINE
  5
151
100
AcDbEntity
100
AcDbLine
  8
notes
 62
256
370
-1
  6
ByLayer
 10
-7.2499999999999929
 20
23.5919999999999987
 30
0.0
 11
-6.3749999999999929
 21
23.5919999999999987
 31
0.0
  0
LINE
  5
152
100
AcDbEntity
100
AcDbLine
  8
notes
 62
256
370
-1
  6
ByLayer
 10
-7.6249999999999929
 20
23.5919999999999987
 30
0.0
 11
-7.6249999999999929
 21
24.0919999999999987
 31
0.0
  0
LINE
  5
153
100
AcDbEntity
100
AcDbLine
  8
notes
 62
256
370
-1
  6
ByLayer
 10
-7.6249999999999929
 20
24.0919999999999987
 30
0.0
 11
-8.125
 21
24.0919999999999987
 31
0.0
  0
LINE
  5
154
100
AcDbEntity
100
AcDbLine
  8
notes
 62
256
370
-1
  6
ByLayer
 10
-8.125
 20
24.0919999999999987
 30
0.0
 11
-8.125
 21
23.5919999999999987
 31
0.0
  0
LINE
  5
155
100
AcDbEntity
100
AcDbLine
  8
notes
 62
256
370
-1
  6
ByLayer
 10
-8.125
 20
23.5919999999999987
 30
0.0
 11
-7.6249999999999929
 21
23.5919999999999987
 31
0.0
  0
CIRCLE
  5
156
100
AcDbEntity
100
AcDbCircle
  8
notes
 62
256
370
-1
  6
ByLayer
 10
-8.875
 20
22.3420000000000023
 30
0.0
 40
0.25
  0
CIRCLE
  5
157
100
AcDbEntity
100
AcDbCircle
  8
notes
 62
256
370
-1
  6
ByLayer
 10
-8.875
 20
22.3420000000000023
 30
0.0
 40
0.1875
  0
CIRCLE
  5
158
100
AcDbEntity
100
AcDbCircle
  8
notes
 62
256
370
-1
  6
ByLayer
 10
-6.8749999999999929
 20
22.3420000000000023
 30
0.0
 40
0.25
  0
CIRCLE
  5
159
100
AcDbEntity
100
AcDbCircle
  8
notes
 62
256
370
-1
  6
ByLayer
 10
-6.8749999999999929
 20
22.3420000000000023
 30
0.0
 40
0.1875
  0
LINE
  5
15A
100
AcDbEntity
100
AcDbLine
  8
notes
 62
256
370
-1
  6
ByLayer
 10
-8.6649999999999956
 20
23.5919999999999987
 30
0.0
 11
-7.0849999999999955
 21
23.5919999999999987
 31
0.0
  0
LINE
  5
15B
100
AcDbEntity
100
AcDbLine
  8
notes
 62
256
370
-1
  6
ByLayer
 10
-7.0849999999999955
 20
23.5919999999999987
 30
0.0
 11
-7.0849999999999955
 21
25.171999999999997
 31
0.0
  0
LINE
  5
15C
100
AcDbEntity
100
AcDbLine
  8
notes
 62
256
370
-1
  6
ByLayer
 10
-7.0849999999999955
 20
25.171999999999997
 30
0.0
 11
-8.6649999999999956
 21
25.171999999999997
 31
0.0
  0
LINE
  5
15D
100
AcDbEntity
100
AcDbLine
  8
notes
 62
256
370
-1
  6
ByLayer
 10
-8.6649999999999956
 20
25.171999999999997
 30
0.0
 11
-8.6649999999999956
 21
23.5919999999999987
 31
0.0
  0
CIRCLE
  5
15E
100
AcDbEntity
100
AcDbCircle
  8
notes
 62
256
370
-1
  6
ByLayer
 10
-7.8749999999999956
 20
24.3820000000000014
 30
0.0
 40
0.25
  0
CIRCLE
  5
15F
100
AcDbEntity
100
AcDbCircle
  8
notes
 62
256
370
-1
  6
ByLayer
 10
-7.8749999999999956
 20
24.3820000000000014
 30
0.0
 40
0.1875
  0
LINE
  5
160
100
AcDbEntity
100
AcDbLine
  8
notes
 62
256
370
-1
  6
ByLayer
 10
-9.375
 20
22.5920000000000059
 30
0.0
 11
-6.3749999999999929
 21
22.5920000000000059
 31
0.0
  0
LINE
  5
161
100
AcDbEntity
100
AcDbLine
  8
notes
 62
256
370
-1
  6
DOT
 10
-9.375
 20
22.9919999999999938
 30
0.0
 11
-6.3749999999999929
 21
22.9919999999999938
 31
0.0
  0
CIRCLE
  5
162
100
AcDbEntity
100
AcDbCircle
  8
notes
 62
256
370
-1
  6
ByLayer
 10
-7.875
 20
21.7999999999999936
 30
0.0
 40
0.542
  0
LINE
  5
163
100
AcDbEntity
100
AcDbLine
  8
notes
 62
256
370
-1
  6
DOT
 10
-6.3749999999999929
 20
21.0920000000000023
 30
0.0
 11
-9.375
 21
21.0920000000000023
 31
0.0
  0
LINE
  5
164
100
AcDbEntity
100
AcDbLine
  8
notes
 62
256
370
-1
  6
DOT
 10
-6.3749999999999929
 20
21.0920000000000023
 30
0.0
 11
-6.3749999999999929
 21
22.9919999999999938
 31
0.0
  0
LINE
  5
165
100
AcDbEntity
100
AcDbLine
  8
notes
 62
256
370
-1
  6
DOT
 10
-9.375
 20
21.0920000000000023
 30
0.0
 11
-9.375
 21
22.9919999999999938
 31
0.0
  0
CIRCLE
  5
166
100
AcDbEntity
100
AcDbCircle
  8
notes
 62
256
370
-1
  6
ByLayer
 10
-7.875
 20
21.7999999999999936
 30
0.0
 40
0.375
  0
CIRCLE
  5
167
100
AcDbEntity
100
AcDbCircle
  8
notes
 62
256
370
-1
  6
ByLayer
 10
-7.875
 20
21.7999999999999936
 30
0.0
 40
0.0625
  0
LINE
  5
168
100
AcDbEntity
100
AcDbLine
  8
notes
 62
256
370
-1
  6
ByLayer
 10
-27.9760000000000097
 20
10.8510000000000026
 30
0.0
 11
-27.9760000000000097
 21
9.8510000000000026
 31
0.0
  0
LINE
  5
169
100
AcDbEntity
100
AcDbLine
  8
notes
 62
256
370
-1
  6
ByLayer
 10
-27.2260000000000062
 20
9.8510000000000026
 30
0.0
 11
-27.2260000000000062
 21
10.8510000000000026
 31
0.0
  0
LINE
  5
16A
100
AcDbEntity
100
AcDbLine
  8
notes
 62
256
370
-1
  6
ByLayer
 10
-28.3090000000000082
 20
9.8510000000000026
 30
0.0
 11
-28.3090000000000082
 21
10.8510000000000026
 31
0.0
  0
LINE
  5
16B
100
AcDbEntity
100
AcDbLine
  8
notes
 62
256
370
-1
  6
ByLayer
 10
-26.409000000000006
 20
10.8510000000000026
 30
0.0
 11
-28.3090000000000082
 21
10.8510000000000026
 31
0.0
  0
LINE
  5
16C
100
AcDbEntity
100
AcDbLine
  8
notes
 62
256
370
-1
  6
ByLayer
 10
-26.409000000000006
 20
10.3510000000000026
 30
0.0
 11
-28.3090000000000082
 21
10.3510000000000026
 31
0.0
  0
LINE
  5
16D
100
AcDbEntity
100
AcDbLine
  8
notes
 62
256
370
-1
  6
ByLayer
 10
-26.409000000000006
 20
9.8510000000000026
 30
0.0
 11
-28.3090000000000082
 21
9.8510000000000026
 31
0.0
  0
LINE
  5
16E
100
AcDbEntity
100
AcDbLine
  8
notes
 62
256
370
-1
  6
ByLayer
 10
-27.1340000000000074
 20
12.2900000000000045
 30
0.0
 11
-27.1340000000000074
 21
11.7900000000000045
 31
0.0
  0
LINE
  5
16F
100
AcDbEntity
100
AcDbLine
  8
notes
 62
256
370
-1
  6
ByLayer
 10
-28.3090000000000082
 20
11.7900000000000045
 30
0.0
 11
-28.3090000000000082
 21
12.2900000000000045
 31
0.0
  0
ARC
  5
170
100
AcDbEntity
  8
outlines
 62
256
370
-1
  6
ByLayer
100
AcDbCircle
 10
3.0625000000000009
 20
5.5874999999999977
 30
0.0
 40
0.0625
100
AcDbArc
 50
180.0
 51
270.0
  0
ARC
  5
171
100
AcDbEntity
  8
outlines
 62
256
370
-1
  6
ByLayer
100
AcDbCircle
 10
4.4715000000000034
 20
5.5874999999999977
 30
0.0
 40
0.0625
100
AcDbArc
 50
270.0
 51
0.0
  0
LINE
  5
172
100
AcDbEntity
100
AcDbLine
  8
outlines
 62
256
370
-1
  6
ByLayer
 10
3.0625000000000009
 20
5.5249999999999977
 30
0.0
 11
4.4715000000000034
 21
5.5249999999999977
 31
0.0
  0
LINE
  5
173
100
AcDbEntity
100
AcDbLine
  8
outlines
 62
256
370
-1
  6
ByLayer
 10
3.0
 20
5.5874999999999977
 30
0.0
 11
3.0000000000000004
 21
6.6375000000000002
 31
0.0
  0
LINE
  5
174
100
AcDbEntity
100
AcDbLine
  8
outlines
 62
256
370
-1
  6
ByLayer
 10
4.5340000000000034
 20
5.5874999999999977
 30
0.0
 11
4.5340000000000034
 21
6.6375000000000002
 31
0.0
  0
LINE
  5
175
100
AcDbEntity
100
AcDbLine
  8
notes
 62
256
370
-1
  6
ByLayer
 10
-28.3090000000000082
 20
12.2900000000000045
 30
0.0
 11
-27.1340000000000074
 21
12.2900000000000045
 31
0.0
  0
LINE
  5
176
100
AcDbEntity
100
AcDbLine
  8
notes
 62
256
370
-1
  6
ByLayer
 10
-27.1340000000000074
 20
11.7900000000000045
 30
0.0
 11
-28.3090000000000082
 21
11.7900000000000045
 31
0.0
  0
CIRCLE
  5
177
100
AcDbEntity
100
AcDbCircle
  8
notes
 62
256
370
-1
  6
ByLayer
 10
6.1000000000000005
 20
25.0
 30
0.0
 40
0.25
  0
CIRCLE
  5
178
100
AcDbEntity
100
AcDbCircle
  8
notes
 62
256
370
-1
  6
ByLayer
 10
6.9000000000000004
 20
25.0
 30
0.0
 40
0.25
  0
CIRCLE
  5
179
100
AcDbEntity
100
AcDbCircle
  8
notes
 62
256
370
-1
  6
ByLayer
 10
2.1000000000000041
 20
25.0999999999999979
 30
0.0
 40
0.25
  0
CIRCLE
  5
17A
100
AcDbEntity
100
AcDbCircle
  8
notes
 62
256
370
-1
  6
ByLayer
 10
2.9000000000000039
 20
25.0999999999999979
 30
0.0
 40
0.25
  0
CIRCLE
  5
17B
100
AcDbEntity
100
AcDbCircle
  8
notes
 62
256
370
-1
  6
ByLayer
 10
6.4999999999999973
 20
22.3110000000000106
 30
0.0
 40
0.25
  0
CIRCLE
  5
17C
100
AcDbEntity
100
AcDbCircle
  8
notes
 62
256
370
-1
  6
ByLayer
 10
2.5000000000000009
 20
22.4110000000000085
 30
0.0
 40
0.25
  0
CIRCLE
  5
17D
100
AcDbEntity
100
AcDbCircle
  8
holes
 62
256
370
-1
  6
ByLayer
 10
6.1000000000000005
 20
25.0
 30
0.0
 40
0.088
  0
CIRCLE
  5
17E
100
AcDbEntity
100
AcDbCircle
  8
holes
 62
256
370
-1
  6
ByLayer
 10
6.9000000000000004
 20
25.0
 30
0.0
 40
0.088
  0
CIRCLE
  5
17F
100
AcDbEntity
100
AcDbCircle
  8
holes
 62
256
370
-1
  6
ByLayer
 10
6.4999999999999973
 20
22.3110000000000106
 30
0.0
 40
0.088
  0
MTEXT
  5
180
100
AcDbEntity
100
AcDbMText
  8
screws
 62
256
370
-1
  6
ByLayer
 10
-24.0000000000000036
 20
16.5
 30
0.0
 40
0.25
 41
100.0
 71
1
 72
2
  1

  7
normallatin1
 50
0.0
 73
1
 44
1.0
  0
CIRCLE
  5
181
100
AcDbEntity
100
AcDbCircle
  8
holes
 62
256
370
-1
  6
ByLayer
 10
-11.2500000000000036
 20
23.2624999999999993
 30
0.0
 40
0.063
  0
CIRCLE
  5
182
100
AcDbEntity
100
AcDbCircle
  8
holes
 62
256
370
-1
  6
ByLayer
 10
-20.7499999999999964
 20
23.2625000000000028
 30
0.0
 40
0.063
  0
CIRCLE
  5
183
100
AcDbEntity
100
AcDbCircle
  8
holes
 62
256
370
-1
  6
ByLayer
 10
-31.7499999999999964
 20
20.350000000000005
 30
0.0
 40
0.063
  0
CIRCLE
  5
184
100
AcDbEntity
100
AcDbCircle
  8
holes
 62
256
370
-1
  6
ByLayer
 10
-22.2500000000000036
 20
20.350000000000005
 30
0.0
 40
0.063
  0
CIRCLE
  5
185
100
AcDbEntity
100
AcDbCircle
  8
holes
 62
256
370
-1
  6
ByLayer
 10
-11.2500000000000036
 20
20.4000000000000021
 30
0.0
 40
0.063
  0
CIRCLE
  5
186
100
AcDbEntity
100
AcDbCircle
  8
holes
 62
256
370
-1
  6
ByLayer
 10
-20.7499999999999964
 20
20.4000000000000057
 30
0.0
 40
0.063
  0
CIRCLE
  5
187
100
AcDbEntity
100
AcDbCircle
  8
holes
 62
256
370
-1
  6
ByLayer
 10
-11.2500000000000036
 20
26.125
 30
0.0
 40
0.063
  0
CIRCLE
  5
188
100
AcDbEntity
100
AcDbCircle
  8
holes
 62
256
370
-1
  6
ByLayer
 10
-20.7499999999999964
 20
26.1250000000000036
 30
0.0
 40
0.063
  0
LINE
  5
189
100
AcDbEntity
100
AcDbLine
  8
notes
 62
256
370
-1
  6
ByLayer
 10
-22.6010000000000062
 20
7.3260000000000023
 30
0.0
 11
-32.8510000000000062
 21
7.3260000000000023
 31
0.0
  0
LINE
  5
18A
100
AcDbEntity
100
AcDbLine
  8
notes
 62
256
370
-1
  6
ByLayer
 10
-27.6010000000000062
 20
10.8510000000000026
 30
0.0
 11
-27.6010000000000062
 21
9.8510000000000026
 31
0.0
  0
LINE
  5
18B
100
AcDbEntity
100
AcDbLine
  8
notes
 62
256
370
-1
  6
ByLayer
 10
-9.375
 20
23.0920000000000023
 30
0.0
 11
-9.375
 21
23.5919999999999987
 31
0.0
  0
LINE
  5
18C
100
AcDbEntity
100
AcDbLine
  8
notes
 62
256
370
-1
  6
ByLayer
 10
-6.3749999999999929
 20
23.0920000000000023
 30
0.0
 11
-6.3749999999999929
 21
23.5919999999999987
 31
0.0
  0
LINE
  5
18D
100
AcDbEntity
100
AcDbLine
  8
notes
 62
256
370
-1
  6
ByLayer
 10
-9.375
 20
22.5920000000000059
 30
0.0
 11
-9.375
 21
23.0920000000000023
 31
0.0
  0
LINE
  5
18E
100
AcDbEntity
100
AcDbLine
  8
notes
 62
256
370
-1
  6
ByLayer
 10
-6.3749999999999929
 20
22.5920000000000059
 30
0.0
 11
-6.3749999999999929
 21
23.0920000000000023
 31
0.0
  0
MTEXT
  5
18F
100
AcDbEntity
100
AcDbMText
  8
notes
 62
256
370
-1
  6
ByLayer
 10
6.2000000000000002
 20
4.9000000000000004
 30
0.0
 40
0.75
 41
100.0
 71
1
 72
2
  1
Rev.\~3/26/2010
  7
normallatin1
 50
0.0
 73
1
 44
1.0
  0
CIRCLE
  5
190
100
AcDbEntity
100
AcDbCircle
  8
screws
 62
256
370
-1
  6
ByLayer
 10
13.4999999999999964
 20
4.4999999999999893
 30
0.0
 40
0.063
  0
CIRCLE
  5
191
100
AcDbEntity
100
AcDbCircle
  8
holes
 62
256
370
-1
  6
ByLayer
 10
2.1000000000000001
 20
25.1000000000000014
 30
0.0
 40
0.11
  0
CIRCLE
  5
192
100
AcDbEntity
100
AcDbCircle
  8
holes
 62
256
370
-1
  6
ByLayer
 10
2.8999999999999999
 20
25.1000000000000014
 30
0.0
 40
0.11
  0
CIRCLE
  5
193
100
AcDbEntity
100
AcDbCircle
  8
holes
 62
256
370
-1
  6
ByLayer
 10
2.5
 20
22.4110000000000014
 30
0.0
 40
0.11
  0
LINE
  5
194
100
AcDbEntity
100
AcDbLine
  8
outlines
 62
256
370
-1
  6
ByLayer
 10
1.0
 20
13.1000000000000085
 30
0.0
 11
1.0
 21
14.625
 31
0.0
  0
ARC
  5
195
100
AcDbEntity
  8
outlines
 62
256
370
-1
  6
ByLayer
100
AcDbCircle
 10
1.375
 20
14.625
 30
0.0
 40
0.375
100
AcDbArc
 50
90.0
 51
180.0
  0
LINE
  5
196
100
AcDbEntity
100
AcDbLine
  8
outlines
 62
256
370
-1
  6
ByLayer
 10
1.375
 20
15.0
 30
0.0
 11
3.6250000000000071
 21
15.0
 31
0.0
  0
LINE
  5
197
100
AcDbEntity
100
AcDbLine
  8
outlines
 62
256
370
-1
  6
ByLayer
 10
4.0000000000000071
 20
13.1000000000000085
 30
0.0
 11
4.0000000000000071
 21
14.625
 31
0.0
  0
ARC
  5
198
100
AcDbEntity
  8
outlines
 62
256
370
-1
  6
ByLayer
100
AcDbCircle
 10
3.6250000000000071
 20
14.625
 30
0.0
 40
0.375
100
AcDbArc
 50
0.0
 51
90.0
  0
LINE
  5
199
100
AcDbEntity
100
AcDbLine
  8
outlines
 62
256
370
-1
  6
ByLayer
 10
1.0
 20
16.1000000000000085
 30
0.0
 11
1.0
 21
17.625
 31
0.0
  0
ARC
  5
19A
100
AcDbEntity
  8
outlines
 62
256
370
-1
  6
ByLayer
100
AcDbCircle
 10
1.375
 20
17.625
 30
0.0
 40
0.375
100
AcDbArc
 50
90.0
 51
180.0
  0
LINE
  5
19B
100
AcDbEntity
100
AcDbLine
  8
outlines
 62
256
370
-1
  6
ByLayer
 10
1.375
 20
18.0
 30
0.0
 11
3.6250000000000071
 21
18.0
 31
0.0
  0
LINE
  5
19C
100
AcDbEntity
100
AcDbLine
  8
outlines
 62
256
370
-1
  6
ByLayer
 10
4.0000000000000071
 20
16.1000000000000085
 30
0.0
 11
4.0000000000000071
 21
17.625
 31
0.0
  0
ARC
  5
19D
100
AcDbEntity
  8
outlines
 62
256
370
-1
  6
ByLayer
100
AcDbCircle
 10
3.6250000000000071
 20
17.625
 30
0.0
 40
0.375
100
AcDbArc
 50
0.0
 51
90.0
  0
CIRCLE
  5
19E
100
AcDbEntity
100
AcDbCircle
  8
holes
 62
256
370
-1
  6
ByLayer
 10
-24.0590000000000046
 20
8.1510000000000016
 30
0.0
 40
0.063
  0
CIRCLE
  5
19F
100
AcDbEntity
100
AcDbCircle
  8
holes
 62
256
370
-1
  6
ByLayer
 10
-19.1430000000000078
 20
8.1510000000000016
 30
0.0
 40
0.063
  0
CIRCLE
  5
1A0
100
AcDbEntity
100
AcDbCircle
  8
holes
 62
256
370
-1
  6
ByLayer
 10
-17.6430000000000078
 20
10.8509999999999991
 30
0.0
 40
0.375
  0
CIRCLE
  5
1A1
100
AcDbEntity
100
AcDbCircle
  8
holes
 62
256
370
-1
  6
ByLayer
 10
2.5
 20
13.2759999999999998
 30
0.0
 40
0.065
  0
CIRCLE
  5
1A2
100
AcDbEntity
100
AcDbCircle
  8
.125
 62
256
370
-1
  6
ByLayer
 10
-27.4799999999999969
 20
20.8300000000000018
 30
0.0
 40
0.192
  0
LINE
  5
1A3
100
AcDbEntity
100
AcDbLine
  8
.125
 62
256
370
-1
  6
ByLayer
 10
-27.1920000000000002
 20
21.0220000000000091
 30
0.0
 11
-26.8079999999999998
 21
21.0220000000000091
 31
0.0
  0
LINE
  5
1A4
100
AcDbEntity
100
AcDbLine
  8
.125
 62
256
370
-1
  6
ByLayer
 10
-26.8079999999999998
 20
21.0220000000000091
 30
0.0
 11
-26.8079999999999998
 21
20.6380000000000017
 31
0.0
  0
LINE
  5
1A5
100
AcDbEntity
100
AcDbLine
  8
.125
 62
256
370
-1
  6
ByLayer
 10
-26.8079999999999998
 20
20.6380000000000017
 30
0.0
 11
-27.1920000000000002
 21
20.6380000000000017
 31
0.0
  0
LINE
  5
1A6
100
AcDbEntity
100
AcDbLine
  8
.125
 62
256
370
-1
  6
ByLayer
 10
-27.1920000000000002
 20
20.6380000000000017
 30
0.0
 11
-27.1920000000000002
 21
21.0220000000000091
 31
0.0
  0
LINE
  5
1A7
100
AcDbEntity
100
AcDbLine
  8
.125
 62
256
370
-1
  6
ByLayer
 10
-26.7119999999999962
 20
21.0220000000000091
 30
0.0
 11
-26.328000000000003
 21
21.0220000000000091
 31
0.0
  0
LINE
  5
1A8
100
AcDbEntity
100
AcDbLine
  8
.125
 62
256
370
-1
  6
ByLayer
 10
-26.328000000000003
 20
21.0220000000000091
 30
0.0
 11
-26.328000000000003
 21
20.6380000000000017
 31
0.0
  0
LINE
  5
1A9
100
AcDbEntity
100
AcDbLine
  8
.125
 62
256
370
-1
  6
ByLayer
 10
-26.328000000000003
 20
20.6380000000000017
 30
0.0
 11
-26.7119999999999962
 21
20.6380000000000017
 31
0.0
  0
LINE
  5
1AA
100
AcDbEntity
100
AcDbLine
  8
.125
 62
256
370
-1
  6
ByLayer
 10
-26.7119999999999962
 20
20.6380000000000017
 30
0.0
 11
-26.7119999999999962
 21
21.0220000000000091
 31
0.0
  0
LINE
  5
1AB
100
AcDbEntity
100
AcDbLine
  8
.125
 62
256
370
-1
  6
ByLayer
 10
-27.671999999999997
 20
20.5420000000000087
 30
0.0
 11
-27.2880000000000038
 21
20.5420000000000087
 31
0.0
  0
LINE
  5
1AC
100
AcDbEntity
100
AcDbLine
  8
.125
 62
256
370
-1
  6
ByLayer
 10
-27.2880000000000038
 20
20.5420000000000087
 30
0.0
 11
-27.2880000000000038
 21
20.1580000000000013
 31
0.0
  0
LINE
  5
1AD
100
AcDbEntity
100
AcDbLine
  8
.125
 62
256
370
-1
  6
ByLayer
 10
-27.2880000000000038
 20
20.1580000000000013
 30
0.0
 11
-27.671999999999997
 21
20.1580000000000013
 31
0.0
  0
LINE
  5
1AE
100
AcDbEntity
100
AcDbLine
  8
.125
 62
256
370
-1
  6
ByLayer
 10
-27.671999999999997
 20
20.1580000000000013
 30
0.0
 11
-27.671999999999997
 21
20.5420000000000087
 31
0.0
  0
LINE
  5
1AF
100
AcDbEntity
100
AcDbLine
  8
.125
 62
256
370
-1
  6
ByLayer
 10
-26.7119999999999962
 20
20.5420000000000087
 30
0.0
 11
-26.328000000000003
 21
20.5420000000000087
 31
0.0
  0
LINE
  5
1B0
100
AcDbEntity
100
AcDbLine
  8
.125
 62
256
370
-1
  6
ByLayer
 10
-26.328000000000003
 20
20.5420000000000087
 30
0.0
 11
-26.328000000000003
 21
20.1580000000000013
 31
0.0
  0
LINE
  5
1B1
100
AcDbEntity
100
AcDbLine
  8
.125
 62
256
370
-1
  6
ByLayer
 10
-26.328000000000003
 20
20.1580000000000013
 30
0.0
 11
-26.7119999999999962
 21
20.1580000000000013
 31
0.0
  0
LINE
  5
1B2
100
AcDbEntity
100
AcDbLine
  8
.125
 62
256
370
-1
  6
ByLayer
 10
-26.7119999999999962
 20
20.1580000000000013
 30
0.0
 11
-26.7119999999999962
 21
20.5420000000000087
 31
0.0
  0
LINE
  5
1B3
100
AcDbEntity
100
AcDbLine
  8
.125
 62
256
370
-1
  6
ByLayer
 10
-27.671999999999997
 20
20.0620000000000083
 30
0.0
 11
-27.2880000000000038
 21
20.0620000000000083
 31
0.0
  0
LINE
  5
1B4
100
AcDbEntity
100
AcDbLine
  8
.125
 62
256
370
-1
  6
ByLayer
 10
-27.2880000000000038
 20
20.0620000000000083
 30
0.0
 11
-27.2880000000000038
 21
19.6780000000000008
 31
0.0
  0
LINE
  5
1B5
100
AcDbEntity
100
AcDbLine
  8
.125
 62
256
370
-1
  6
ByLayer
 10
-27.2880000000000038
 20
19.6780000000000008
 30
0.0
 11
-27.671999999999997
 21
19.6780000000000008
 31
0.0
  0
LINE
  5
1B6
100
AcDbEntity
100
AcDbLine
  8
.125
 62
256
370
-1
  6
ByLayer
 10
-27.671999999999997
 20
19.6780000000000008
 30
0.0
 11
-27.671999999999997
 21
20.0620000000000083
 31
0.0
  0
LINE
  5
1B7
100
AcDbEntity
100
AcDbLine
  8
.125
 62
256
370
-1
  6
ByLayer
 10
-27.1920000000000002
 20
20.0620000000000083
 30
0.0
 11
-26.8079999999999998
 21
20.0620000000000083
 31
0.0
  0
LINE
  5
1B8
100
AcDbEntity
100
AcDbLine
  8
.125
 62
256
370
-1
  6
ByLayer
 10
-26.8079999999999998
 20
20.0620000000000083
 30
0.0
 11
-26.8079999999999998
 21
19.6780000000000008
 31
0.0
  0
LINE
  5
1B9
100
AcDbEntity
100
AcDbLine
  8
.125
 62
256
370
-1
  6
ByLayer
 10
-26.8079999999999998
 20
19.6780000000000008
 30
0.0
 11
-27.1920000000000002
 21
19.6780000000000008
 31
0.0
  0
LINE
  5
1BA
100
AcDbEntity
100
AcDbLine
  8
.125
 62
256
370
-1
  6
ByLayer
 10
-27.1920000000000002
 20
19.6780000000000008
 30
0.0
 11
-27.1920000000000002
 21
20.0620000000000083
 31
0.0
  0
LINE
  5
1BB
100
AcDbEntity
100
AcDbLine
  8
.125
 62
256
370
-1
  6
ByLayer
 10
-26.7119999999999962
 20
20.0620000000000083
 30
0.0
 11
-26.328000000000003
 21
20.0620000000000083
 31
0.0
  0
LINE
  5
1BC
100
AcDbEntity
100
AcDbLine
  8
.125
 62
256
370
-1
  6
ByLayer
 10
-26.328000000000003
 20
20.0620000000000083
 30
0.0
 11
-26.328000000000003
 21
19.6780000000000008
 31
0.0
  0
LINE
  5
1BD
100
AcDbEntity
100
AcDbLine
  8
.125
 62
256
370
-1
  6
ByLayer
 10
-26.328000000000003
 20
19.6780000000000008
 30
0.0
 11
-26.7119999999999962
 21
19.6780000000000008
 31
0.0
  0
LINE
  5
1BE
100
AcDbEntity
100
AcDbLine
  8
.125
 62
256
370
-1
  6
ByLayer
 10
-26.7119999999999962
 20
19.6780000000000008
 30
0.0
 11
-26.7119999999999962
 21
20.0620000000000083
 31
0.0
  0
CIRCLE
  5
1BF
100
AcDbEntity
100
AcDbCircle
  8
.125
 62
256
370
-1
  6
ByLayer
 10
-27.0
 20
20.350000000000005
 30
0.0
 40
0.192
  0
SPLINE
  5
1C0
  8
.125
 62
256
370
-1
  6
ByLayer
100
AcDbEntity
100
AcDbSpline
 70
8
 71
3
 72
10
 73
6
 74
0
 40
0.0
 40
0.0
 40
0.0
 40
0.0
 40
0.3333333333333333
 40
0.6666666666666666
 40
1.0
 40
1.0
 40
1.0
 40
1.0
 10
-14.9303571494572545
 20
26.0583487616191682
 30
0.0
 10
-14.6283913291448862
 20
26.0103516913066208
 30
0.0
 10
-13.9390475791448019
 20
25.2182110663066048
 30
0.0
 10
-13.4186383994572545
 20
24.4993888006816682
 30
0.0
 10
-12.8989850791447545
 20
23.8474600897441711
 30
0.0
 10
-12.634434297894753
 20
23.5262198553691668
 30
0.0
  0
SPLINE
  5
1C1
  8
.125
 62
256
370
-1
  6
ByLayer
100
AcDbEntity
100
AcDbSpline
 70
8
 71
3
 72
19
 73
15
 74
0
 40
0.0
 40
0.0
 40
0.0
 40
0.0
 40
0.0833333333333333
 40
0.1666666666666667
 40
0.25
 40
0.3333333333333333
 40
0.4166666666666667
 40
0.5
 40
0.5833333333333334
 40
0.6666666666666666
 40
0.75
 40
0.8333333333333334
 40
0.9166666666666666
 40
1.0
 40
1.0
 40
1.0
 40
1.0
 10
-14.7791852744572587
 20
25.0757315741191711
 30
0.0
 10
-14.7886335166447545
 20
25.2835929022441697
 30
0.0
 10
-14.9681501182072587
 20
25.5292471991191654
 30
0.0
 10
-15.1665632041447545
 20
25.6426261053691711
 30
0.0
 10
-15.516148165082253
 20
25.4725577459941697
 30
0.0
 10
-15.6767682822697587
 20
25.3875235663066654
 30
0.0
 10
-15.8184919150822587
 20
25.3686270819316668
 30
0.0
 10
-15.8846296103947573
 20
25.6048331366191668
 30
0.0
 10
-15.799595430707253
 20
25.7843497381816711
 30
0.0
 10
-15.9163757041448441
 20
26.046632941306644
 30
0.0
 10
-15.7954382041448405
 20
26.3187423163066434
 30
0.0
 10
-15.2633132041448896
 20
26.3489766913066426
 30
0.0
 10
-15.0274850791447996
 20
26.3308360663066914
 30
0.0
 10
-14.9005007041448856
 20
26.228039191306646
 30
0.0
 10
-14.9303571494572545
 20
26.0583487616191682
 30
0.0
  0
SPLINE
  5
1C2
  8
.125
 62
256
370
-1
  6
ByLayer
100
AcDbEntity
100
AcDbSpline
 70
8
 71
3
 72
8
 73
4
 74
0
 40
0.0
 40
0.0
 40
0.0
 40
0.0
 40
1.0
 40
1.0
 40
1.0
 40
1.0
 10
-15.3649762900822573
 20
23.5356680975566697
 30
0.0
 10
-15.1121413291448867
 20
23.9967423163066691
 30
0.0
 10
-15.0516725791448884
 20
24.891679816306624
 30
0.0
 10
-14.7791852744572587
 20
25.0757315741191711
 30
0.0
  0
SPLINE
  5
1C3
  8
.125
 62
256
370
-1
  6
ByLayer
100
AcDbEntity
100
AcDbSpline
 70
8
 71
3
 72
11
 73
7
 74
0
 40
0.0
 40
0.0
 40
0.0
 40
0.0
 40
0.25
 40
0.5
 40
0.75
 40
1.0
 40
1.0
 40
1.0
 40
1.0
 10
-17.6042096885197559
 20
23.8758048163066654
 30
0.0
 10
-17.4341413291447545
 20
24.4563048163066874
 30
0.0
 10
-17.0713288291447576
 20
25.073086066306626
 30
0.0
 10
-16.575485079144709
 20
24.9158673163065991
 30
0.0
 10
-16.279188204144841
 20
24.6195704413066245
 30
0.0
 10
-15.9345163291448024
 20
24.1902423163065983
 30
0.0
 10
-15.3649762900822573
 20
23.5356680975566697
 30
0.0
  0
SPLINE
  5
1C4
  8
.125
 62
256
370
-1
  6
ByLayer
100
AcDbEntity
100
AcDbSpline
 70
8
 71
3
 72
10
 73
6
 74
0
 40
0.0
 40
0.0
 40
0.0
 40
0.0
 40
0.3333333333333333
 40
0.6666666666666666
 40
1.0
 40
1.0
 40
1.0
 40
1.0
 10
-19.3804792197697573
 20
23.1482901678691668
 30
0.0
 10
-19.106480196332253
 20
23.9041495428691668
 30
0.0
 10
-18.7100319541448847
 20
24.184195441306688
 30
0.0
 10
-18.3169850791448887
 20
24.2023360663066462
 30
0.0
 10
-17.9160016807072573
 20
24.0175284491191654
 30
0.0
 10
-17.6042096885197559
 20
23.8758048163066654
 30
0.0
  0
SPLINE
  5
1C5
  8
.125
 62
256
370
-1
  6
ByLayer
100
AcDbEntity
100
AcDbSpline
 70
8
 71
3
 72
9
 73
5
 74
0
 40
0.0
 40
0.0
 40
0.0
 40
0.0
 40
0.5
 40
1.0
 40
1.0
 40
1.0
 40
1.0
 10
-13.2255163291448419
 20
22.5333985663066265
 30
0.0
 10
-13.2325307041447324
 20
22.2397623163066349
 30
0.0
 10
-12.6829907041447463
 20
22.657722316306657
 30
0.0
 10
-12.5436707041447413
 20
23.4820323163066327
 30
0.0
 10
-12.634434297894753
 20
23.5262198553691668
 30
0.0
  0
SPLINE
  5
1C6
  8
.125
 62
256
370
-1
  6
ByLayer
100
AcDbEntity
100
AcDbSpline
 70
8
 71
3
 72
8
 73
4
 74
0
 40
0.0
 40
0.0
 40
0.0
 40
0.0
 40
1.0
 40
1.0
 40
1.0
 40
1.0
 10
-15.0731027041446772
 20
23.2615971163066142
 30
0.0
 10
-14.9096339041447088
 20
23.5984419163066228
 30
0.0
 10
-14.8056083041446875
 20
23.8659363163067262
 30
0.0
 10
-14.7758867041447068
 20
23.82383071630667
 30
0.0
  0
SPLINE
  5
1C7
  8
.125
 62
256
370
-1
  6
ByLayer
100
AcDbEntity
100
AcDbSpline
 70
8
 71
3
 72
11
 73
7
 74
0
 40
0.0
 40
0.0
 40
0.0
 40
0.0
 40
0.25
 40
0.5
 40
0.75
 40
1.0
 40
1.0
 40
1.0
 40
1.0
 10
-14.7758867041447068
 20
23.82383071630667
 30
0.0
 10
-14.7857939041447786
 20
23.5687203163066492
 30
0.0
 10
-14.8328531041447569
 20
23.2269219163067184
 30
0.0
 10
-14.8551443041447904
 20
23.0659299163066542
 30
0.0
 10
-14.9244947041448022
 20
23.0906979163067057
 30
0.0
 10
-15.0136595041447301
 20
23.1773859163067222
 30
0.0
 10
-15.0731027041446772
 20
23.2615971163066142
 30
0.0
  0
LINE
  5
1C8
100
AcDbEntity
100
AcDbLine
  8
.125
 62
256
370
-1
  6
ByLayer
 10
-16.5649030478947559
 20
23.4449649725566651
 30
0.0
 11
-17.347601071745185
 21
23.7763096405197381
 31
0.0
  0
SPLINE
  5
1C9
  8
.125
 62
256
370
-1
  6
ByLayer
100
AcDbEntity
100
AcDbSpline
 70
8
 71
3
 72
15
 73
11
 74
0
 40
0.0
 40
0.0
 40
0.0
 40
0.0
 40
0.125
 40
0.25
 40
0.375
 40
0.5
 40
0.625
 40
0.75
 40
0.875
 40
1.0
 40
1.0
 40
1.0
 40
1.0
 10
-17.347601071745185
 20
23.7763096405197381
 30
0.0
 10
-17.2665015314358747
 20
24.1441531567638954
 30
0.0
 10
-17.1165102365156763
 20
24.4062035851455583
 30
0.0
 10
-16.9172939992482121
 20
24.5637234006593594
 30
0.0
 10
-16.7194007041447712
 20
24.3566523163067394
 30
0.0
 10
-16.4717207041446905
 20
23.8264623163067348
 30
0.0
 10
-16.0885907041447318
 20
23.4278523163067014
 30
0.0
 10
-15.6938507041448254
 20
23.0950323163066535
 30
0.0
 10
-15.7364207041447024
 20
23.0485923163066495
 30
0.0
 10
-16.1814707041447328
 20
23.2807923163066555
 30
0.0
 10
-16.5649030478947559
 20
23.4449649725566651
 30
0.0
  0
SPLINE
  5
1CA
  8
.125
 62
256
370
-1
  6
ByLayer
100
AcDbEntity
100
AcDbSpline
 70
8
 71
3
 72
30
 73
26
 74
0
 40
0.0
 40
0.0
 40
0.0
 40
0.0
 40
0.0434782608695652
 40
0.0869565217391304
 40
0.1304347826086956
 40
0.1739130434782609
 40
0.2173913043478261
 40
0.2608695652173913
 40
0.3043478260869565
 40
0.3478260869565217
 40
0.391304347826087
 40
0.4347826086956522
 40
0.4782608695652174
 40
0.5217391304347826
 40
0.5652173913043478
 40
0.6086956521739131
 40
0.6521739130434783
 40
0.6956521739130435
 40
0.7391304347826086
 40
0.7826086956521739
 40
0.8260869565217391
 40
0.8695652173913043
 40
0.9130434782608695
 40
0.9565217391304348
 40
1.0
 40
1.0
 40
1.0
 40
1.0
 10
-19.3804792197697573
 20
23.1482901678691668
 30
0.0
 10
-19.3630944541448464
 20
22.9869141913066208
 30
0.0
 10
-19.1504838363609089
 20
23.0010489327453875
 30
0.0
 10
-18.998830704144769
 20
23.4162423163066471
 30
0.0
 10
-18.7523600791447116
 20
23.7911485663066919
 30
0.0
 10
-18.6600512227066808
 20
23.8140183103343652
 30
0.0
 10
-18.5805216096816714
 20
23.844946493177428
 30
0.0
 10
-18.3593132041447085
 20
23.7669610663066031
 30
0.0
 10
-17.8150944541447096
 20
23.3497266913066248
 30
0.0
 10
-17.2031507041447718
 20
22.9324923163066465
 30
0.0
 10
-16.3324007041446855
 20
22.8628323163066405
 30
0.0
 10
-15.6551507041448623
 20
22.5996723163065987
 30
0.0
 10
-15.4447194541448845
 20
22.6966641913066702
 30
0.0
 10
-15.3237819541448879
 20
22.805507941306626
 30
0.0
 10
-15.2391257041448007
 20
22.7692266913066028
 30
0.0
 10
-15.0049907041448343
 20
22.4564823163066798
 30
0.0
 10
-14.691520704144768
 20
22.4797023163066818
 30
0.0
 10
-14.5800163291447085
 20
22.7873673163066677
 30
0.0
 10
-14.4651257041448424
 20
23.5371798163066437
 30
0.0
 10
-14.3502350791447562
 20
24.4683985663066217
 30
0.0
 10
-14.3741807041447949
 20
24.7823523163066817
 30
0.0
 10
-14.2776725791447099
 20
24.6981798163066877
 30
0.0
 10
-13.8362507041447564
 20
24.1825023163066781
 30
0.0
 10
-13.5421307041446717
 20
23.5671723163065927
 30
0.0
 10
-13.3283132041448873
 20
23.0413360663066022
 30
0.0
 10
-13.2255163291448419
 20
22.5333985663066265
 30
0.0
  0
ENDSEC
  0
SECTION
  2
OBJECTS
  0
DICTIONARY
  5
C
100
AcDbDictionary
280
0
281
1
  3
ACAD_GROUP
350
D
  3
ACAD_LAYOUT
350
1A
  3
ACAD_MLINESTYLE
350
17
  3
ACAD_PLOTSETTINGS
350
19
  3
ACAD_PLOTSTYLENAME
350
E
  3
AcDbVariableDictionary
350
1CB
  0
DICTIONARY
  5
D
100
AcDbDictionary
280
0
281
1
  0
ACDBDICTIONARYWDFLT
  5
E
100
AcDbDictionary
281
1
  3
Normal
350
F
100
AcDbDictionaryWithDefault
340
F
  0
ACDBPLACEHOLDER
  5
F
  0
DICTIONARY
  5
17
100
AcDbDictionary
280
0
281
1
  3
Standard
350
18
  0
MLINESTYLE
  5
18
100
AcDbMlineStyle
  2
STANDARD
 70
0
  3

 62
256
 51
90.0
 52
90.0
 71
2
 49
0.5
 62
256
  6
BYLAYER
 49
-0.5
 62
256
  6
BYLAYER
  0
DICTIONARY
  5
19
100
AcDbDictionary
280
0
281
1
  0
DICTIONARY
  5
1A
100
AcDbDictionary
281
1
  3
Layout1
350
1E
  3
Layout2
350
26
  3
Model
350
22
  0
LAYOUT
  5
1E
100
AcDbPlotSettings
  1

  2
C:\Program Files\AutoCAD 2002\plotters\DWF ePlot (optimized for plotting).pc3
  4

  6

 40
0.0
 41
0.0
 42
0.0
 43
0.0
 44
0.0
 45
0.0
 46
0.0
 47
0.0
 48
0.0
 49
0.0
140
0.0
141
0.0
142
1.0
143
1.0
 70
688
 72
0
 73
0
 74
5
  7

 75
16
147
1.0
148
0.0
149
0.0
100
AcDbLayout
  1
Layout1
 70
1
 71
1
 10
0.0
 20
0.0
 11
420.0
 21
297.0
 12
0.0
 22
0.0
 32
0.0
 14
100000000000000000000.0
 24
100000000000000000000.0
 34
100000000000000000000.0
 15
-100000000000000000000.0
 25
-100000000000000000000.0
 35
-100000000000000000000.0
146
0.0
 13
0.0
 23
0.0
 33
0.0
 16
1.0
 26
0.0
 36
0.0
 17
0.0
 27
1.0
 37
0.0
 76
0
330
1B
  0
LAYOUT
  5
22
100
AcDbPlotSettings
  1

  2
C:\Program Files\AutoCAD 2002\plotters\DWF ePlot (optimized for plotting).pc3
  4

  6

 40
0.0
 41
0.0
 42
0.0
 43
0.0
 44
0.0
 45
0.0
 46
0.0
 47
0.0
 48
0.0
 49
0.0
140
0.0
141
0.0
142
1.0
143
1.0
 70
1712
 72
0
 73
0
 74
0
  7

 75
0
147
1.0
148
0.0
149
0.0
100
AcDbLayout
  1
Model
 70
1
 71
0
 10
0.0
 20
0.0
 11
12.0
 21
9.0
 12
0.0
 22
0.0
 32
0.0
 14
0.0
 24
0.0
 34
0.0
 15
0.0
 25
0.0
 35
0.0
146
0.0
 13
0.0
 23
0.0
 33
0.0
 16
1.0
 26
0.0
 36
0.0
 17
0.0
 27
1.0
 37
0.0
 76
0
330
1F
  0
LAYOUT
  5
26
100
AcDbPlotSettings
  1

  2
C:\Program Files\AutoCAD 2002\plotters\DWF ePlot (optimized for plotting).pc3
  4

  6

 40
0.0
 41
0.0
 42
0.0
 43
0.0
 44
0.0
 45
0.0
 46
0.0
 47
0.0
 48
0.0
 49
0.0
140
0.0
141
0.0
142
1.0
143
1.0
 70
688
 72
0
 73
0
 74
5
  7

 75
16
147
1.0
148
0.0
149
0.0
100
AcDbLayout
  1
Layout2
 70
1
 71
2
 10
0.0
 20
0.0
 11
12.0
 21
9.0
 12
0.0
 22
0.0
 32
0.0
 14
0.0
 24
0.0
 34
0.0
 15
0.0
 25
0.0
 35
0.0
146
0.0
 13
0.0
 23
0.0
 33
0.0
 16
1.0
 26
0.0
 36
0.0
 17
0.0
 27
1.0
 37
0.0
 76
0
330
23
  0
DICTIONARY
  5
1CB
100
AcDbDictionary
281
1
  3
DIMASSOC
350
1CD
  3
HIDETEXT
350
1CC
  0
DICTIONARYVAR
  5
1CC
100
DictionaryVariables
280
0
  1
2
  0
DICTIONARYVAR
  5
1CD
100
DictionaryVariables
280
0
  1
1
  0
ENDSEC
  0
EOF
